%TF.GenerationSoftware,KiCad,Pcbnew,(5.1.12)-1*%
%TF.CreationDate,2021-12-12T05:01:24+00:00*%
%TF.ProjectId,StenoMi,5374656e-6f4d-4692-9e6b-696361645f70,rev?*%
%TF.SameCoordinates,Original*%
%TF.FileFunction,Profile,NP*%
%FSLAX46Y46*%
G04 Gerber Fmt 4.6, Leading zero omitted, Abs format (unit mm)*
G04 Created by KiCad (PCBNEW (5.1.12)-1) date 2021-12-12 05:01:24*
%MOMM*%
%LPD*%
G01*
G04 APERTURE LIST*
%TA.AperFunction,Profile*%
%ADD10C,0.050000*%
%TD*%
G04 APERTURE END LIST*
D10*
X144727602Y-78998177D02*
G75*
G03*
X144727602Y-78998177I-5388154J0D01*
G01*
X106056342Y-82550000D02*
G75*
G03*
X106056342Y-82550000I-1916342J0D01*
G01*
X97166342Y-71120000D02*
G75*
G03*
X97166342Y-71120000I-1916342J0D01*
G01*
X160410213Y-40351639D02*
X142240000Y-34290000D01*
X161290000Y-80010000D02*
X161289649Y-41550057D01*
X160410213Y-40351639D02*
G75*
G02*
X161289649Y-41550057I-386503J-1205516D01*
G01*
X34154748Y-36709580D02*
X92710000Y-30480000D01*
X33020000Y-71120000D02*
X33024590Y-37980520D01*
X33024590Y-37980520D02*
G75*
G02*
X34154748Y-36709580I1269102J9432D01*
G01*
X81280000Y-69850000D02*
X72389999Y-69850001D01*
X68126876Y-72092427D02*
G75*
G02*
X67310000Y-72390000I-816876J972427D01*
G01*
X68128851Y-72094777D02*
G75*
G02*
X72389999Y-69850001I4232255J-2867129D01*
G01*
X81280001Y-69848863D02*
G75*
G02*
X102849556Y-90474872I-1J-21591137D01*
G01*
X153670000Y-105410000D02*
X103735107Y-91670559D01*
X103735107Y-91670560D02*
G75*
G02*
X102849557Y-90474871I377421J1205298D01*
G01*
X107781823Y-74330388D02*
G75*
G03*
X107781823Y-74330388I-4911823J0D01*
G01*
X34290000Y-72390000D02*
X67310000Y-72390000D01*
X155941845Y-104005923D02*
X161290000Y-80010000D01*
X155941845Y-104005923D02*
G75*
G02*
X153670000Y-105410000I-2271845J1135923D01*
G01*
X34290000Y-72390000D02*
G75*
G02*
X33020000Y-71120000I0J1270000D01*
G01*
X121748460Y-70808042D02*
G75*
G03*
X121748460Y-70808042I-1916342J0D01*
G01*
X117154555Y-73660000D02*
G75*
G03*
X117154555Y-73660000I-4124555J0D01*
G01*
X129303598Y-77470000D02*
G75*
G03*
X129303598Y-77470000I-3573598J0D01*
G01*
X99060000Y-30480000D02*
X92710000Y-30480000D01*
X142240000Y-34290000D02*
X99060000Y-30480000D01*
M02*
