M48
; DRILL file {KiCad (5.1.12)-1} date 12/12/21 05:01:30
; FORMAT={-:-/ absolute / inch / decimal}
; #@! TF.CreationDate,2021-12-12T05:01:30+00:00
; #@! TF.GenerationSoftware,Kicad,Pcbnew,(5.1.12)-1
FMAT,2
INCH
T1C0.0157
T2C0.0430
T3C0.0500
T4C0.0390
T5C0.0670
T6C0.1350
%
G90
G05
T1
X5.95Y-3.05
X5.95Y-3.35
X6.25Y-2.85
X6.25Y-3.15
T2
X5.65Y-1.65
X5.65Y-1.75
X5.65Y-1.85
X5.65Y-1.95
X5.65Y-2.05
X5.65Y-2.15
X5.65Y-2.25
X5.65Y-2.35
X5.65Y-2.45
X5.65Y-2.55
X5.65Y-2.65
X5.65Y-2.75
X6.25Y-1.65
X6.25Y-1.75
X6.25Y-1.85
X6.25Y-1.95
X6.25Y-2.05
X6.25Y-2.15
X6.25Y-2.25
X6.25Y-2.35
X6.25Y-2.45
X6.25Y-2.55
X6.25Y-2.65
X6.25Y-2.75
T3
X1.4571Y-1.9761
X1.4571Y-2.6443
X1.6539Y-2.0588
X1.6539Y-2.727
X1.8508Y-1.9761
X1.8508Y-2.6443
X2.1669Y-1.9761
X2.1669Y-2.6443
X2.3638Y-2.0588
X2.3638Y-2.727
X2.5606Y-1.9761
X2.5606Y-2.6443
X2.8763Y-1.8016
X2.8763Y-2.4698
X3.0731Y-1.8843
X3.0731Y-2.5525
X3.27Y-1.8016
X3.27Y-2.4698
X3.5849Y-1.6807
X3.5849Y-2.3489
X3.7817Y-1.7634
X3.7817Y-2.4316
X3.9786Y-1.6807
X3.9786Y-2.3489
X4.2942Y-2.4692
X4.2944Y-1.7999
X4.3221Y-3.1871
X4.4911Y-2.5519
X4.4912Y-1.8825
X4.5336Y-3.1582
X4.6879Y-2.4692
X4.6881Y-1.7999
X4.7024Y-3.289
X5.003Y-2.4692
X5.0031Y-1.7999
X5.0078Y-3.3708
X5.1999Y-2.5519
X5.2Y-1.8825
X5.2193Y-3.3419
X5.3881Y-3.4727
X5.3967Y-2.4692
X5.3969Y-1.7999
X5.693Y-3.5544
X5.9046Y-3.5255
X6.0733Y-3.6563
T4
X1.4484Y-1.6611
X1.4484Y-2.3293
X1.8595Y-1.6611
X1.8595Y-2.3293
X2.1583Y-1.6611
X2.1583Y-2.3293
X2.5693Y-1.6611
X2.5693Y-2.3293
X2.8676Y-1.4867
X2.8676Y-2.1548
X3.2786Y-1.4867
X3.2786Y-2.1548
X3.5762Y-1.3658
X3.5762Y-2.0339
X3.9873Y-1.3658
X3.9873Y-2.0339
X4.2322Y-3.4891
X4.2856Y-2.1543
X4.2857Y-1.4849
X4.6292Y-3.5955
X4.6966Y-2.1543
X4.6968Y-1.4849
X4.9179Y-3.6728
X4.9943Y-2.1543
X4.9945Y-1.4849
X5.3149Y-3.7792
X5.4054Y-2.1543
X5.4055Y-1.4849
X5.6031Y-3.8564
X6.0001Y-3.9628
T5
X1.4374Y-1.8265
X1.4374Y-2.4947
X1.8705Y-1.8265
X1.8705Y-2.4947
X2.1472Y-1.8265
X2.1472Y-2.4947
X2.5803Y-1.8265
X2.5803Y-2.4947
X2.8566Y-1.652
X2.8566Y-2.3202
X3.2897Y-1.652
X3.2897Y-2.3202
X3.5652Y-1.5311
X3.5652Y-2.1993
X3.9983Y-1.5311
X3.9983Y-2.1993
X4.2644Y-3.3265
X4.2746Y-2.3196
X4.2747Y-1.6502
X4.6827Y-3.4386
X4.7076Y-2.3196
X4.7078Y-1.6502
X4.95Y-3.5102
X4.9833Y-2.3196
X4.9835Y-1.6502
X5.3684Y-3.6223
X5.4164Y-2.3196
X5.4165Y-1.6502
X5.6353Y-3.6939
X6.0536Y-3.8059
T6
X1.6539Y-1.8265
X1.6539Y-2.4947
X2.3638Y-1.8265
X2.3638Y-2.4947
X3.0731Y-1.652
X3.0731Y-2.3202
X3.7817Y-1.5311
X3.7817Y-2.1993
X4.4735Y-3.3826
X4.4911Y-2.3196
X4.4912Y-1.6502
X5.1592Y-3.5663
X5.1999Y-2.3196
X5.2Y-1.6502
X5.8444Y-3.7499
T0
M30
