%TF.GenerationSoftware,KiCad,Pcbnew,(5.1.12)-1*%
%TF.CreationDate,2021-12-12T05:01:24+00:00*%
%TF.ProjectId,StenoMi,5374656e-6f4d-4692-9e6b-696361645f70,rev?*%
%TF.SameCoordinates,Original*%
%TF.FileFunction,Soldermask,Bot*%
%TF.FilePolarity,Negative*%
%FSLAX46Y46*%
G04 Gerber Fmt 4.6, Leading zero omitted, Abs format (unit mm)*
G04 Created by KiCad (PCBNEW (5.1.12)-1) date 2021-12-12 05:01:24*
%MOMM*%
%LPD*%
G01*
G04 APERTURE LIST*
%ADD10C,1.752600*%
%ADD11C,1.701800*%
%ADD12C,0.990600*%
%ADD13C,2.032000*%
%ADD14C,3.429000*%
G04 APERTURE END LIST*
D10*
%TO.C,U1*%
X143510000Y-41910000D03*
X143510000Y-44450000D03*
X143510000Y-46990000D03*
X143510000Y-49530000D03*
X143510000Y-52070000D03*
X143510000Y-54610000D03*
X143510000Y-57150000D03*
X143510000Y-59690000D03*
X143510000Y-62230000D03*
X143510000Y-64770000D03*
X143510000Y-67310000D03*
X158750000Y-69850000D03*
X158750000Y-67310000D03*
X158750000Y-64770000D03*
X158750000Y-62230000D03*
X158750000Y-59690000D03*
X158750000Y-57150000D03*
X158750000Y-54610000D03*
X158750000Y-52070000D03*
X158750000Y-49530000D03*
X158750000Y-46990000D03*
X158750000Y-44450000D03*
X143510000Y-69850000D03*
X158750000Y-41910000D03*
%TD*%
%TO.C,Reset2*%
G36*
G01*
X159550000Y-78700000D02*
X157950000Y-78700000D01*
G75*
G02*
X157750000Y-78500000I0J200000D01*
G01*
X157750000Y-78100000D01*
G75*
G02*
X157950000Y-77900000I200000J0D01*
G01*
X159550000Y-77900000D01*
G75*
G02*
X159750000Y-78100000I0J-200000D01*
G01*
X159750000Y-78500000D01*
G75*
G02*
X159550000Y-78700000I-200000J0D01*
G01*
G37*
G36*
G01*
X159550000Y-74500000D02*
X157950000Y-74500000D01*
G75*
G02*
X157750000Y-74300000I0J200000D01*
G01*
X157750000Y-73900000D01*
G75*
G02*
X157950000Y-73700000I200000J0D01*
G01*
X159550000Y-73700000D01*
G75*
G02*
X159750000Y-73900000I0J-200000D01*
G01*
X159750000Y-74300000D01*
G75*
G02*
X159550000Y-74500000I-200000J0D01*
G01*
G37*
%TD*%
%TO.C,BT2*%
G36*
G01*
X153730000Y-77290000D02*
X153730000Y-74390000D01*
G75*
G02*
X153980000Y-74140000I250000J0D01*
G01*
X154980000Y-74140000D01*
G75*
G02*
X155230000Y-74390000I0J-250000D01*
G01*
X155230000Y-77290000D01*
G75*
G02*
X154980000Y-77540000I-250000J0D01*
G01*
X153980000Y-77540000D01*
G75*
G02*
X153730000Y-77290000I0J250000D01*
G01*
G37*
G36*
G01*
X147030000Y-77290000D02*
X147030000Y-74390000D01*
G75*
G02*
X147280000Y-74140000I250000J0D01*
G01*
X148280000Y-74140000D01*
G75*
G02*
X148530000Y-74390000I0J-250000D01*
G01*
X148530000Y-77290000D01*
G75*
G02*
X148280000Y-77540000I-250000J0D01*
G01*
X147280000Y-77540000D01*
G75*
G02*
X147030000Y-77290000I0J250000D01*
G01*
G37*
G36*
G01*
X151630000Y-83090000D02*
X151630000Y-80090000D01*
G75*
G02*
X151880000Y-79840000I250000J0D01*
G01*
X152380000Y-79840000D01*
G75*
G02*
X152630000Y-80090000I0J-250000D01*
G01*
X152630000Y-83090000D01*
G75*
G02*
X152380000Y-83340000I-250000J0D01*
G01*
X151880000Y-83340000D01*
G75*
G02*
X151630000Y-83090000I0J250000D01*
G01*
G37*
G36*
G01*
X149630000Y-83090000D02*
X149630000Y-80090000D01*
G75*
G02*
X149880000Y-79840000I250000J0D01*
G01*
X150380000Y-79840000D01*
G75*
G02*
X150630000Y-80090000I0J-250000D01*
G01*
X150630000Y-83090000D01*
G75*
G02*
X150380000Y-83340000I-250000J0D01*
G01*
X149880000Y-83340000D01*
G75*
G02*
X149630000Y-83090000I0J250000D01*
G01*
G37*
%TD*%
D11*
%TO.C,SW15*%
X118940064Y-87340605D03*
X108314880Y-84493595D03*
D12*
X107498299Y-88622953D03*
D13*
X115154504Y-80218138D03*
X119440614Y-83540677D03*
D14*
X113627472Y-85917100D03*
D13*
X109781355Y-80952487D03*
D12*
X117582565Y-91325024D03*
%TD*%
D11*
%TO.C,SW12*%
X36510210Y-63364687D03*
X47510210Y-63364687D03*
D12*
X47230210Y-59164687D03*
D13*
X42010210Y-69264687D03*
X37010210Y-67164687D03*
D14*
X42010210Y-63364687D03*
D13*
X47010210Y-67164687D03*
D12*
X36790210Y-59164687D03*
%TD*%
D11*
%TO.C,SW11*%
X54540034Y-63364687D03*
X65540034Y-63364687D03*
D12*
X65260034Y-59164687D03*
D13*
X60040034Y-69264687D03*
X55040034Y-67164687D03*
D14*
X60040034Y-63364687D03*
D13*
X65040034Y-67164687D03*
D12*
X54820034Y-59164687D03*
%TD*%
D11*
%TO.C,SW10*%
X72557608Y-58933077D03*
X83557608Y-58933077D03*
D12*
X83277608Y-54733077D03*
D13*
X78057608Y-64833077D03*
X73057608Y-62733077D03*
D14*
X78057608Y-58933077D03*
D13*
X83057608Y-62733077D03*
D12*
X72837608Y-54733077D03*
%TD*%
D11*
%TO.C,SW9*%
X90556221Y-55862250D03*
X101556221Y-55862250D03*
D12*
X101276221Y-51662250D03*
D13*
X96056221Y-61762250D03*
X91056221Y-59662250D03*
D14*
X96056221Y-55862250D03*
D13*
X101056221Y-59662250D03*
D12*
X90836221Y-51662250D03*
%TD*%
D11*
%TO.C,SW8*%
X108573910Y-58918007D03*
X119573910Y-58918007D03*
D12*
X119293910Y-54718007D03*
D13*
X114073910Y-64818007D03*
X109073910Y-62718007D03*
D14*
X114073910Y-58918007D03*
D13*
X119073910Y-62718007D03*
D12*
X108853910Y-54718007D03*
%TD*%
D11*
%TO.C,SW7*%
X126576304Y-58918007D03*
X137576304Y-58918007D03*
D12*
X137296304Y-54718007D03*
D13*
X132076304Y-64818007D03*
X127076304Y-62718007D03*
D14*
X132076304Y-58918007D03*
D13*
X137076304Y-62718007D03*
D12*
X126856304Y-54718007D03*
%TD*%
D11*
%TO.C,SW6*%
X36510210Y-46392980D03*
X47510210Y-46392980D03*
D12*
X47230210Y-42192980D03*
D13*
X42010210Y-52292980D03*
X37010210Y-50192980D03*
D14*
X42010210Y-46392980D03*
D13*
X47010210Y-50192980D03*
D12*
X36790210Y-42192980D03*
%TD*%
D11*
%TO.C,SW5*%
X54540034Y-46392980D03*
X65540034Y-46392980D03*
D12*
X65260034Y-42192980D03*
D13*
X60040034Y-52292980D03*
X55040034Y-50192980D03*
D14*
X60040034Y-46392980D03*
D13*
X65040034Y-50192980D03*
D12*
X54820034Y-42192980D03*
%TD*%
D11*
%TO.C,SW4*%
X72557608Y-41961370D03*
X83557608Y-41961370D03*
D12*
X83277608Y-37761370D03*
D13*
X78057608Y-47861370D03*
X73057608Y-45761370D03*
D14*
X78057608Y-41961370D03*
D13*
X83057608Y-45761370D03*
D12*
X72837608Y-37761370D03*
%TD*%
D11*
%TO.C,SW3*%
X90556221Y-38890543D03*
X101556221Y-38890543D03*
D12*
X101276221Y-34690543D03*
D13*
X96056221Y-44790543D03*
X91056221Y-42690543D03*
D14*
X96056221Y-38890543D03*
D13*
X101056221Y-42690543D03*
D12*
X90836221Y-34690543D03*
%TD*%
D11*
%TO.C,SW2*%
X108577606Y-41916303D03*
X119577606Y-41916303D03*
D12*
X119297606Y-37716303D03*
D13*
X114077606Y-47816303D03*
X109077606Y-45716303D03*
D14*
X114077606Y-41916303D03*
D13*
X119077606Y-45716303D03*
D12*
X108857606Y-37716303D03*
%TD*%
D11*
%TO.C,SW1*%
X126580000Y-41916303D03*
X137580000Y-41916303D03*
D12*
X137300000Y-37716303D03*
D13*
X132080000Y-47816303D03*
X127080000Y-45716303D03*
D14*
X132080000Y-41916303D03*
D13*
X137080000Y-45716303D03*
D12*
X126860000Y-37716303D03*
%TD*%
D11*
%TO.C,SW13*%
X153761287Y-96670924D03*
X143136103Y-93823914D03*
D12*
X142319522Y-97953272D03*
D13*
X149975727Y-89548457D03*
X154261837Y-92870996D03*
D14*
X148448695Y-95247419D03*
D13*
X144602578Y-90282806D03*
D12*
X152403788Y-100655343D03*
%TD*%
D11*
%TO.C,SW14*%
X136356239Y-92007255D03*
X125731055Y-89160245D03*
D12*
X124914474Y-93289603D03*
D13*
X132570679Y-84884788D03*
X136856789Y-88207327D03*
D14*
X131043647Y-90583750D03*
D13*
X127197530Y-85619137D03*
D12*
X134998740Y-95991674D03*
%TD*%
M02*
