%TF.GenerationSoftware,KiCad,Pcbnew,(5.1.12)-1*%
%TF.CreationDate,2021-12-12T00:25:17+00:00*%
%TF.ProjectId,StenoMi,5374656e-6f4d-4692-9e6b-696361645f70,rev?*%
%TF.SameCoordinates,Original*%
%TF.FileFunction,Legend,Top*%
%TF.FilePolarity,Positive*%
%FSLAX46Y46*%
G04 Gerber Fmt 4.6, Leading zero omitted, Abs format (unit mm)*
G04 Created by KiCad (PCBNEW (5.1.12)-1) date 2021-12-12 00:25:17*
%MOMM*%
%LPD*%
G01*
G04 APERTURE LIST*
%ADD10C,0.381000*%
%ADD11C,0.120000*%
%ADD12C,0.150000*%
%ADD13C,0.300000*%
G04 APERTURE END LIST*
D10*
%TO.C,U1*%
X142240000Y-40640000D02*
X142240000Y-71120000D01*
X142240000Y-71120000D02*
X160020000Y-71120000D01*
X160020000Y-71120000D02*
X160020000Y-40640000D01*
X160020000Y-40640000D02*
X160020000Y-38100000D01*
X160020000Y-38100000D02*
X142240000Y-38100000D01*
X142240000Y-38100000D02*
X142240000Y-40640000D01*
D11*
%TO.C,BT1*%
X155190000Y-77800000D02*
X155190000Y-82050000D01*
X155190000Y-82050000D02*
X154170000Y-82050000D01*
X154170000Y-82050000D02*
X154170000Y-80450000D01*
X154170000Y-80450000D02*
X152890000Y-80450000D01*
X152890000Y-80450000D02*
X152890000Y-83340000D01*
X147070000Y-77800000D02*
X147070000Y-82050000D01*
X147070000Y-82050000D02*
X148090000Y-82050000D01*
X148090000Y-82050000D02*
X148090000Y-80450000D01*
X148090000Y-80450000D02*
X149370000Y-80450000D01*
X153470000Y-74230000D02*
X148790000Y-74230000D01*
D12*
%TO.C,SW15*%
X106020184Y-91125667D02*
X105054258Y-90866847D01*
X105054258Y-90866847D02*
X105313077Y-89900922D01*
X108418905Y-78309812D02*
X108677725Y-77343886D01*
X108677725Y-77343886D02*
X109643650Y-77602705D01*
X121234760Y-80708533D02*
X122200686Y-80967353D01*
X122200686Y-80967353D02*
X121941867Y-81933278D01*
X118836039Y-93524388D02*
X118577219Y-94490314D01*
X118577219Y-94490314D02*
X117611294Y-94231495D01*
%TO.C,SW12*%
X48010210Y-56364687D02*
X49010210Y-56364687D01*
X49010210Y-56364687D02*
X49010210Y-57364687D01*
X49010210Y-69364687D02*
X49010210Y-70364687D01*
X49010210Y-70364687D02*
X48010210Y-70364687D01*
X36010210Y-70364687D02*
X35010210Y-70364687D01*
X35010210Y-70364687D02*
X35010210Y-69364687D01*
X35010210Y-57364687D02*
X35010210Y-56364687D01*
X35010210Y-56364687D02*
X36010210Y-56364687D01*
%TO.C,SW11*%
X66040034Y-56364687D02*
X67040034Y-56364687D01*
X67040034Y-56364687D02*
X67040034Y-57364687D01*
X67040034Y-69364687D02*
X67040034Y-70364687D01*
X67040034Y-70364687D02*
X66040034Y-70364687D01*
X54040034Y-70364687D02*
X53040034Y-70364687D01*
X53040034Y-70364687D02*
X53040034Y-69364687D01*
X53040034Y-57364687D02*
X53040034Y-56364687D01*
X53040034Y-56364687D02*
X54040034Y-56364687D01*
%TO.C,SW10*%
X84057608Y-51933077D02*
X85057608Y-51933077D01*
X85057608Y-51933077D02*
X85057608Y-52933077D01*
X85057608Y-64933077D02*
X85057608Y-65933077D01*
X85057608Y-65933077D02*
X84057608Y-65933077D01*
X72057608Y-65933077D02*
X71057608Y-65933077D01*
X71057608Y-65933077D02*
X71057608Y-64933077D01*
X71057608Y-52933077D02*
X71057608Y-51933077D01*
X71057608Y-51933077D02*
X72057608Y-51933077D01*
%TO.C,SW9*%
X102056221Y-48862250D02*
X103056221Y-48862250D01*
X103056221Y-48862250D02*
X103056221Y-49862250D01*
X103056221Y-61862250D02*
X103056221Y-62862250D01*
X103056221Y-62862250D02*
X102056221Y-62862250D01*
X90056221Y-62862250D02*
X89056221Y-62862250D01*
X89056221Y-62862250D02*
X89056221Y-61862250D01*
X89056221Y-49862250D02*
X89056221Y-48862250D01*
X89056221Y-48862250D02*
X90056221Y-48862250D01*
%TO.C,SW8*%
X120073910Y-51918007D02*
X121073910Y-51918007D01*
X121073910Y-51918007D02*
X121073910Y-52918007D01*
X121073910Y-64918007D02*
X121073910Y-65918007D01*
X121073910Y-65918007D02*
X120073910Y-65918007D01*
X108073910Y-65918007D02*
X107073910Y-65918007D01*
X107073910Y-65918007D02*
X107073910Y-64918007D01*
X107073910Y-52918007D02*
X107073910Y-51918007D01*
X107073910Y-51918007D02*
X108073910Y-51918007D01*
%TO.C,SW7*%
X138076304Y-51918007D02*
X139076304Y-51918007D01*
X139076304Y-51918007D02*
X139076304Y-52918007D01*
X139076304Y-64918007D02*
X139076304Y-65918007D01*
X139076304Y-65918007D02*
X138076304Y-65918007D01*
X126076304Y-65918007D02*
X125076304Y-65918007D01*
X125076304Y-65918007D02*
X125076304Y-64918007D01*
X125076304Y-52918007D02*
X125076304Y-51918007D01*
X125076304Y-51918007D02*
X126076304Y-51918007D01*
%TO.C,SW6*%
X48010210Y-39392980D02*
X49010210Y-39392980D01*
X49010210Y-39392980D02*
X49010210Y-40392980D01*
X49010210Y-52392980D02*
X49010210Y-53392980D01*
X49010210Y-53392980D02*
X48010210Y-53392980D01*
X36010210Y-53392980D02*
X35010210Y-53392980D01*
X35010210Y-53392980D02*
X35010210Y-52392980D01*
X35010210Y-40392980D02*
X35010210Y-39392980D01*
X35010210Y-39392980D02*
X36010210Y-39392980D01*
%TO.C,SW5*%
X66040034Y-39392980D02*
X67040034Y-39392980D01*
X67040034Y-39392980D02*
X67040034Y-40392980D01*
X67040034Y-52392980D02*
X67040034Y-53392980D01*
X67040034Y-53392980D02*
X66040034Y-53392980D01*
X54040034Y-53392980D02*
X53040034Y-53392980D01*
X53040034Y-53392980D02*
X53040034Y-52392980D01*
X53040034Y-40392980D02*
X53040034Y-39392980D01*
X53040034Y-39392980D02*
X54040034Y-39392980D01*
%TO.C,SW4*%
X84057608Y-34961370D02*
X85057608Y-34961370D01*
X85057608Y-34961370D02*
X85057608Y-35961370D01*
X85057608Y-47961370D02*
X85057608Y-48961370D01*
X85057608Y-48961370D02*
X84057608Y-48961370D01*
X72057608Y-48961370D02*
X71057608Y-48961370D01*
X71057608Y-48961370D02*
X71057608Y-47961370D01*
X71057608Y-35961370D02*
X71057608Y-34961370D01*
X71057608Y-34961370D02*
X72057608Y-34961370D01*
%TO.C,SW3*%
X102056221Y-31890543D02*
X103056221Y-31890543D01*
X103056221Y-31890543D02*
X103056221Y-32890543D01*
X103056221Y-44890543D02*
X103056221Y-45890543D01*
X103056221Y-45890543D02*
X102056221Y-45890543D01*
X90056221Y-45890543D02*
X89056221Y-45890543D01*
X89056221Y-45890543D02*
X89056221Y-44890543D01*
X89056221Y-32890543D02*
X89056221Y-31890543D01*
X89056221Y-31890543D02*
X90056221Y-31890543D01*
%TO.C,SW2*%
X120077606Y-34916303D02*
X121077606Y-34916303D01*
X121077606Y-34916303D02*
X121077606Y-35916303D01*
X121077606Y-47916303D02*
X121077606Y-48916303D01*
X121077606Y-48916303D02*
X120077606Y-48916303D01*
X108077606Y-48916303D02*
X107077606Y-48916303D01*
X107077606Y-48916303D02*
X107077606Y-47916303D01*
X107077606Y-35916303D02*
X107077606Y-34916303D01*
X107077606Y-34916303D02*
X108077606Y-34916303D01*
%TO.C,SW1*%
X138080000Y-34916303D02*
X139080000Y-34916303D01*
X139080000Y-34916303D02*
X139080000Y-35916303D01*
X139080000Y-47916303D02*
X139080000Y-48916303D01*
X139080000Y-48916303D02*
X138080000Y-48916303D01*
X126080000Y-48916303D02*
X125080000Y-48916303D01*
X125080000Y-48916303D02*
X125080000Y-47916303D01*
X125080000Y-35916303D02*
X125080000Y-34916303D01*
X125080000Y-34916303D02*
X126080000Y-34916303D01*
%TO.C,SW13*%
X140841407Y-100455986D02*
X139875481Y-100197166D01*
X139875481Y-100197166D02*
X140134300Y-99231241D01*
X143240128Y-87640131D02*
X143498948Y-86674205D01*
X143498948Y-86674205D02*
X144464873Y-86933024D01*
X156055983Y-90038852D02*
X157021909Y-90297672D01*
X157021909Y-90297672D02*
X156763090Y-91263597D01*
X153657262Y-102854707D02*
X153398442Y-103820633D01*
X153398442Y-103820633D02*
X152432517Y-103561814D01*
%TO.C,SW14*%
X123436359Y-95792317D02*
X122470433Y-95533497D01*
X122470433Y-95533497D02*
X122729252Y-94567572D01*
X125835080Y-82976462D02*
X126093900Y-82010536D01*
X126093900Y-82010536D02*
X127059825Y-82269355D01*
X138650935Y-85375183D02*
X139616861Y-85634003D01*
X139616861Y-85634003D02*
X139358042Y-86599928D01*
X136252214Y-98191038D02*
X135993394Y-99156964D01*
X135993394Y-99156964D02*
X135027469Y-98898145D01*
D11*
%TO.C,Reset1*%
X157180000Y-78270000D02*
X157180000Y-74130000D01*
X160020000Y-74130000D02*
X160320000Y-74130000D01*
X160320000Y-74130000D02*
X160320000Y-78270000D01*
X157480000Y-78270000D02*
X157180000Y-78270000D01*
X160320000Y-78270000D02*
X160020000Y-78270000D01*
X157180000Y-74130000D02*
X157480000Y-74130000D01*
%TO.C,U1*%
D13*
X146348285Y-69020571D02*
X146348285Y-70020571D01*
X146348285Y-69163428D02*
X146419714Y-69092000D01*
X146562571Y-69020571D01*
X146776857Y-69020571D01*
X146919714Y-69092000D01*
X146991142Y-69234857D01*
X146991142Y-70020571D01*
X147705428Y-70020571D02*
X147705428Y-69020571D01*
X147705428Y-68520571D02*
X147634000Y-68592000D01*
X147705428Y-68663428D01*
X147776857Y-68592000D01*
X147705428Y-68520571D01*
X147705428Y-68663428D01*
X149062571Y-69949142D02*
X148919714Y-70020571D01*
X148634000Y-70020571D01*
X148491142Y-69949142D01*
X148419714Y-69877714D01*
X148348285Y-69734857D01*
X148348285Y-69306285D01*
X148419714Y-69163428D01*
X148491142Y-69092000D01*
X148634000Y-69020571D01*
X148919714Y-69020571D01*
X149062571Y-69092000D01*
X150276857Y-69949142D02*
X150134000Y-70020571D01*
X149848285Y-70020571D01*
X149705428Y-69949142D01*
X149634000Y-69806285D01*
X149634000Y-69234857D01*
X149705428Y-69092000D01*
X149848285Y-69020571D01*
X150134000Y-69020571D01*
X150276857Y-69092000D01*
X150348285Y-69234857D01*
X150348285Y-69377714D01*
X149634000Y-69520571D01*
X150991142Y-69877714D02*
X151062571Y-69949142D01*
X150991142Y-70020571D01*
X150919714Y-69949142D01*
X150991142Y-69877714D01*
X150991142Y-70020571D01*
X150991142Y-69449142D02*
X150919714Y-68592000D01*
X150991142Y-68520571D01*
X151062571Y-68592000D01*
X150991142Y-69449142D01*
X150991142Y-68520571D01*
X151705428Y-69020571D02*
X151705428Y-70020571D01*
X151705428Y-69163428D02*
X151776857Y-69092000D01*
X151919714Y-69020571D01*
X152134000Y-69020571D01*
X152276857Y-69092000D01*
X152348285Y-69234857D01*
X152348285Y-70020571D01*
X153705428Y-70020571D02*
X153705428Y-69234857D01*
X153634000Y-69092000D01*
X153491142Y-69020571D01*
X153205428Y-69020571D01*
X153062571Y-69092000D01*
X153705428Y-69949142D02*
X153562571Y-70020571D01*
X153205428Y-70020571D01*
X153062571Y-69949142D01*
X152991142Y-69806285D01*
X152991142Y-69663428D01*
X153062571Y-69520571D01*
X153205428Y-69449142D01*
X153562571Y-69449142D01*
X153705428Y-69377714D01*
X154419714Y-69020571D02*
X154419714Y-70020571D01*
X154419714Y-69163428D02*
X154491142Y-69092000D01*
X154634000Y-69020571D01*
X154848285Y-69020571D01*
X154991142Y-69092000D01*
X155062571Y-69234857D01*
X155062571Y-70020571D01*
X155991142Y-70020571D02*
X155848285Y-69949142D01*
X155776857Y-69877714D01*
X155705428Y-69734857D01*
X155705428Y-69306285D01*
X155776857Y-69163428D01*
X155848285Y-69092000D01*
X155991142Y-69020571D01*
X156205428Y-69020571D01*
X156348285Y-69092000D01*
X156419714Y-69163428D01*
X156491142Y-69306285D01*
X156491142Y-69734857D01*
X156419714Y-69877714D01*
X156348285Y-69949142D01*
X156205428Y-70020571D01*
X155991142Y-70020571D01*
D12*
X155867191Y-66871904D02*
X155943381Y-66871904D01*
X156019571Y-66910000D01*
X156057667Y-66948095D01*
X156095762Y-67024285D01*
X156133857Y-67176666D01*
X156133857Y-67367142D01*
X156095762Y-67519523D01*
X156057667Y-67595714D01*
X156019571Y-67633809D01*
X155943381Y-67671904D01*
X155867191Y-67671904D01*
X155791000Y-67633809D01*
X155752905Y-67595714D01*
X155714810Y-67519523D01*
X155676714Y-67367142D01*
X155676714Y-67176666D01*
X155714810Y-67024285D01*
X155752905Y-66948095D01*
X155791000Y-66910000D01*
X155867191Y-66871904D01*
X156895762Y-67671904D02*
X156438619Y-67671904D01*
X156667191Y-67671904D02*
X156667191Y-66871904D01*
X156591000Y-66986190D01*
X156514810Y-67062380D01*
X156438619Y-67100476D01*
X157391000Y-66871904D02*
X157467191Y-66871904D01*
X157543381Y-66910000D01*
X157581476Y-66948095D01*
X157619571Y-67024285D01*
X157657667Y-67176666D01*
X157657667Y-67367142D01*
X157619571Y-67519523D01*
X157581476Y-67595714D01*
X157543381Y-67633809D01*
X157467191Y-67671904D01*
X157391000Y-67671904D01*
X157314810Y-67633809D01*
X157276714Y-67595714D01*
X157238619Y-67519523D01*
X157200524Y-67367142D01*
X157200524Y-67176666D01*
X157238619Y-67024285D01*
X157276714Y-66948095D01*
X157314810Y-66910000D01*
X157391000Y-66871904D01*
X156133857Y-60051904D02*
X155676714Y-60051904D01*
X155905286Y-60051904D02*
X155905286Y-59251904D01*
X155829095Y-59366190D01*
X155752905Y-59442380D01*
X155676714Y-59480476D01*
X156895762Y-60051904D02*
X156438619Y-60051904D01*
X156667191Y-60051904D02*
X156667191Y-59251904D01*
X156591000Y-59366190D01*
X156514810Y-59442380D01*
X156438619Y-59480476D01*
X157619571Y-59251904D02*
X157238619Y-59251904D01*
X157200524Y-59632857D01*
X157238619Y-59594761D01*
X157314810Y-59556666D01*
X157505286Y-59556666D01*
X157581476Y-59594761D01*
X157619571Y-59632857D01*
X157657667Y-59709047D01*
X157657667Y-59899523D01*
X157619571Y-59975714D01*
X157581476Y-60013809D01*
X157505286Y-60051904D01*
X157314810Y-60051904D01*
X157238619Y-60013809D01*
X157200524Y-59975714D01*
X155867191Y-56711904D02*
X155943381Y-56711904D01*
X156019571Y-56750000D01*
X156057667Y-56788095D01*
X156095762Y-56864285D01*
X156133857Y-57016666D01*
X156133857Y-57207142D01*
X156095762Y-57359523D01*
X156057667Y-57435714D01*
X156019571Y-57473809D01*
X155943381Y-57511904D01*
X155867191Y-57511904D01*
X155791000Y-57473809D01*
X155752905Y-57435714D01*
X155714810Y-57359523D01*
X155676714Y-57207142D01*
X155676714Y-57016666D01*
X155714810Y-56864285D01*
X155752905Y-56788095D01*
X155791000Y-56750000D01*
X155867191Y-56711904D01*
X156629095Y-56711904D02*
X156705286Y-56711904D01*
X156781476Y-56750000D01*
X156819571Y-56788095D01*
X156857667Y-56864285D01*
X156895762Y-57016666D01*
X156895762Y-57207142D01*
X156857667Y-57359523D01*
X156819571Y-57435714D01*
X156781476Y-57473809D01*
X156705286Y-57511904D01*
X156629095Y-57511904D01*
X156552905Y-57473809D01*
X156514810Y-57435714D01*
X156476714Y-57359523D01*
X156438619Y-57207142D01*
X156438619Y-57016666D01*
X156476714Y-56864285D01*
X156514810Y-56788095D01*
X156552905Y-56750000D01*
X156629095Y-56711904D01*
X157200524Y-56788095D02*
X157238619Y-56750000D01*
X157314810Y-56711904D01*
X157505286Y-56711904D01*
X157581476Y-56750000D01*
X157619571Y-56788095D01*
X157657667Y-56864285D01*
X157657667Y-56940476D01*
X157619571Y-57054761D01*
X157162429Y-57511904D01*
X157657667Y-57511904D01*
X155867191Y-54171904D02*
X155943381Y-54171904D01*
X156019571Y-54210000D01*
X156057667Y-54248095D01*
X156095762Y-54324285D01*
X156133857Y-54476666D01*
X156133857Y-54667142D01*
X156095762Y-54819523D01*
X156057667Y-54895714D01*
X156019571Y-54933809D01*
X155943381Y-54971904D01*
X155867191Y-54971904D01*
X155791000Y-54933809D01*
X155752905Y-54895714D01*
X155714810Y-54819523D01*
X155676714Y-54667142D01*
X155676714Y-54476666D01*
X155714810Y-54324285D01*
X155752905Y-54248095D01*
X155791000Y-54210000D01*
X155867191Y-54171904D01*
X156438619Y-54248095D02*
X156476714Y-54210000D01*
X156552905Y-54171904D01*
X156743381Y-54171904D01*
X156819571Y-54210000D01*
X156857667Y-54248095D01*
X156895762Y-54324285D01*
X156895762Y-54400476D01*
X156857667Y-54514761D01*
X156400524Y-54971904D01*
X156895762Y-54971904D01*
X157276714Y-54971904D02*
X157429095Y-54971904D01*
X157505286Y-54933809D01*
X157543381Y-54895714D01*
X157619571Y-54781428D01*
X157657667Y-54629047D01*
X157657667Y-54324285D01*
X157619571Y-54248095D01*
X157581476Y-54210000D01*
X157505286Y-54171904D01*
X157352905Y-54171904D01*
X157276714Y-54210000D01*
X157238619Y-54248095D01*
X157200524Y-54324285D01*
X157200524Y-54514761D01*
X157238619Y-54590952D01*
X157276714Y-54629047D01*
X157352905Y-54667142D01*
X157505286Y-54667142D01*
X157581476Y-54629047D01*
X157619571Y-54590952D01*
X157657667Y-54514761D01*
X156051334Y-42271904D02*
X155784667Y-41890952D01*
X155594191Y-42271904D02*
X155594191Y-41471904D01*
X155898953Y-41471904D01*
X155975143Y-41510000D01*
X156013238Y-41548095D01*
X156051334Y-41624285D01*
X156051334Y-41738571D01*
X156013238Y-41814761D01*
X155975143Y-41852857D01*
X155898953Y-41890952D01*
X155594191Y-41890952D01*
X156356095Y-42043333D02*
X156737048Y-42043333D01*
X156279905Y-42271904D02*
X156546572Y-41471904D01*
X156813238Y-42271904D01*
X157003715Y-41471904D02*
X157194191Y-42271904D01*
X157346572Y-41700476D01*
X157498953Y-42271904D01*
X157689429Y-41471904D01*
X155975143Y-44050000D02*
X155898952Y-44011904D01*
X155784667Y-44011904D01*
X155670381Y-44050000D01*
X155594190Y-44126190D01*
X155556095Y-44202380D01*
X155518000Y-44354761D01*
X155518000Y-44469047D01*
X155556095Y-44621428D01*
X155594190Y-44697619D01*
X155670381Y-44773809D01*
X155784667Y-44811904D01*
X155860857Y-44811904D01*
X155975143Y-44773809D01*
X156013238Y-44735714D01*
X156013238Y-44469047D01*
X155860857Y-44469047D01*
X156356095Y-44811904D02*
X156356095Y-44011904D01*
X156813238Y-44811904D01*
X156813238Y-44011904D01*
X157194190Y-44811904D02*
X157194190Y-44011904D01*
X157384667Y-44011904D01*
X157498952Y-44050000D01*
X157575143Y-44126190D01*
X157613238Y-44202380D01*
X157651333Y-44354761D01*
X157651333Y-44469047D01*
X157613238Y-44621428D01*
X157575143Y-44697619D01*
X157498952Y-44773809D01*
X157384667Y-44811904D01*
X157194190Y-44811904D01*
X156279904Y-47351904D02*
X156013238Y-46970952D01*
X155822761Y-47351904D02*
X155822761Y-46551904D01*
X156127523Y-46551904D01*
X156203714Y-46590000D01*
X156241809Y-46628095D01*
X156279904Y-46704285D01*
X156279904Y-46818571D01*
X156241809Y-46894761D01*
X156203714Y-46932857D01*
X156127523Y-46970952D01*
X155822761Y-46970952D01*
X156584666Y-47313809D02*
X156698952Y-47351904D01*
X156889428Y-47351904D01*
X156965619Y-47313809D01*
X157003714Y-47275714D01*
X157041809Y-47199523D01*
X157041809Y-47123333D01*
X157003714Y-47047142D01*
X156965619Y-47009047D01*
X156889428Y-46970952D01*
X156737047Y-46932857D01*
X156660857Y-46894761D01*
X156622761Y-46856666D01*
X156584666Y-46780476D01*
X156584666Y-46704285D01*
X156622761Y-46628095D01*
X156660857Y-46590000D01*
X156737047Y-46551904D01*
X156927523Y-46551904D01*
X157041809Y-46590000D01*
X157270380Y-46551904D02*
X157727523Y-46551904D01*
X157498952Y-47351904D02*
X157498952Y-46551904D01*
X155600524Y-49091904D02*
X155867191Y-49891904D01*
X156133857Y-49091904D01*
X156857667Y-49815714D02*
X156819571Y-49853809D01*
X156705286Y-49891904D01*
X156629095Y-49891904D01*
X156514810Y-49853809D01*
X156438619Y-49777619D01*
X156400524Y-49701428D01*
X156362429Y-49549047D01*
X156362429Y-49434761D01*
X156400524Y-49282380D01*
X156438619Y-49206190D01*
X156514810Y-49130000D01*
X156629095Y-49091904D01*
X156705286Y-49091904D01*
X156819571Y-49130000D01*
X156857667Y-49168095D01*
X157657667Y-49815714D02*
X157619571Y-49853809D01*
X157505286Y-49891904D01*
X157429095Y-49891904D01*
X157314810Y-49853809D01*
X157238619Y-49777619D01*
X157200524Y-49701428D01*
X157162429Y-49549047D01*
X157162429Y-49434761D01*
X157200524Y-49282380D01*
X157238619Y-49206190D01*
X157314810Y-49130000D01*
X157429095Y-49091904D01*
X157505286Y-49091904D01*
X157619571Y-49130000D01*
X157657667Y-49168095D01*
X155867191Y-51631904D02*
X155943381Y-51631904D01*
X156019571Y-51670000D01*
X156057667Y-51708095D01*
X156095762Y-51784285D01*
X156133857Y-51936666D01*
X156133857Y-52127142D01*
X156095762Y-52279523D01*
X156057667Y-52355714D01*
X156019571Y-52393809D01*
X155943381Y-52431904D01*
X155867191Y-52431904D01*
X155791000Y-52393809D01*
X155752905Y-52355714D01*
X155714810Y-52279523D01*
X155676714Y-52127142D01*
X155676714Y-51936666D01*
X155714810Y-51784285D01*
X155752905Y-51708095D01*
X155791000Y-51670000D01*
X155867191Y-51631904D01*
X156400524Y-51631904D02*
X156895762Y-51631904D01*
X156629095Y-51936666D01*
X156743381Y-51936666D01*
X156819571Y-51974761D01*
X156857667Y-52012857D01*
X156895762Y-52089047D01*
X156895762Y-52279523D01*
X156857667Y-52355714D01*
X156819571Y-52393809D01*
X156743381Y-52431904D01*
X156514810Y-52431904D01*
X156438619Y-52393809D01*
X156400524Y-52355714D01*
X157657667Y-52431904D02*
X157200524Y-52431904D01*
X157429095Y-52431904D02*
X157429095Y-51631904D01*
X157352905Y-51746190D01*
X157276714Y-51822380D01*
X157200524Y-51860476D01*
X156133857Y-62591904D02*
X155676714Y-62591904D01*
X155905286Y-62591904D02*
X155905286Y-61791904D01*
X155829095Y-61906190D01*
X155752905Y-61982380D01*
X155676714Y-62020476D01*
X156895762Y-62591904D02*
X156438619Y-62591904D01*
X156667191Y-62591904D02*
X156667191Y-61791904D01*
X156591000Y-61906190D01*
X156514810Y-61982380D01*
X156438619Y-62020476D01*
X157162429Y-61791904D02*
X157657667Y-61791904D01*
X157391000Y-62096666D01*
X157505286Y-62096666D01*
X157581476Y-62134761D01*
X157619571Y-62172857D01*
X157657667Y-62249047D01*
X157657667Y-62439523D01*
X157619571Y-62515714D01*
X157581476Y-62553809D01*
X157505286Y-62591904D01*
X157276714Y-62591904D01*
X157200524Y-62553809D01*
X157162429Y-62515714D01*
X156133857Y-65131904D02*
X155676714Y-65131904D01*
X155905286Y-65131904D02*
X155905286Y-64331904D01*
X155829095Y-64446190D01*
X155752905Y-64522380D01*
X155676714Y-64560476D01*
X156895762Y-65131904D02*
X156438619Y-65131904D01*
X156667191Y-65131904D02*
X156667191Y-64331904D01*
X156591000Y-64446190D01*
X156514810Y-64522380D01*
X156438619Y-64560476D01*
X157657667Y-65131904D02*
X157200524Y-65131904D01*
X157429095Y-65131904D02*
X157429095Y-64331904D01*
X157352905Y-64446190D01*
X157276714Y-64522380D01*
X157200524Y-64560476D01*
X145059476Y-67671904D02*
X144602333Y-67671904D01*
X144830905Y-67671904D02*
X144830905Y-66871904D01*
X144754714Y-66986190D01*
X144678524Y-67062380D01*
X144602333Y-67100476D01*
X145554714Y-66871904D02*
X145630905Y-66871904D01*
X145707095Y-66910000D01*
X145745190Y-66948095D01*
X145783286Y-67024285D01*
X145821381Y-67176666D01*
X145821381Y-67367142D01*
X145783286Y-67519523D01*
X145745190Y-67595714D01*
X145707095Y-67633809D01*
X145630905Y-67671904D01*
X145554714Y-67671904D01*
X145478524Y-67633809D01*
X145440429Y-67595714D01*
X145402333Y-67519523D01*
X145364238Y-67367142D01*
X145364238Y-67176666D01*
X145402333Y-67024285D01*
X145440429Y-66948095D01*
X145478524Y-66910000D01*
X145554714Y-66871904D01*
X146507095Y-67138571D02*
X146507095Y-67671904D01*
X146316619Y-66833809D02*
X146126143Y-67405238D01*
X146621381Y-67405238D01*
X145059476Y-62591904D02*
X144602333Y-62591904D01*
X144830905Y-62591904D02*
X144830905Y-61791904D01*
X144754714Y-61906190D01*
X144678524Y-61982380D01*
X144602333Y-62020476D01*
X145554714Y-61791904D02*
X145630905Y-61791904D01*
X145707095Y-61830000D01*
X145745190Y-61868095D01*
X145783286Y-61944285D01*
X145821381Y-62096666D01*
X145821381Y-62287142D01*
X145783286Y-62439523D01*
X145745190Y-62515714D01*
X145707095Y-62553809D01*
X145630905Y-62591904D01*
X145554714Y-62591904D01*
X145478524Y-62553809D01*
X145440429Y-62515714D01*
X145402333Y-62439523D01*
X145364238Y-62287142D01*
X145364238Y-62096666D01*
X145402333Y-61944285D01*
X145440429Y-61868095D01*
X145478524Y-61830000D01*
X145554714Y-61791904D01*
X146316619Y-61791904D02*
X146392810Y-61791904D01*
X146469000Y-61830000D01*
X146507095Y-61868095D01*
X146545190Y-61944285D01*
X146583286Y-62096666D01*
X146583286Y-62287142D01*
X146545190Y-62439523D01*
X146507095Y-62515714D01*
X146469000Y-62553809D01*
X146392810Y-62591904D01*
X146316619Y-62591904D01*
X146240429Y-62553809D01*
X146202333Y-62515714D01*
X146164238Y-62439523D01*
X146126143Y-62287142D01*
X146126143Y-62096666D01*
X146164238Y-61944285D01*
X146202333Y-61868095D01*
X146240429Y-61830000D01*
X146316619Y-61791904D01*
X144792810Y-59251904D02*
X144869000Y-59251904D01*
X144945190Y-59290000D01*
X144983286Y-59328095D01*
X145021381Y-59404285D01*
X145059476Y-59556666D01*
X145059476Y-59747142D01*
X145021381Y-59899523D01*
X144983286Y-59975714D01*
X144945190Y-60013809D01*
X144869000Y-60051904D01*
X144792810Y-60051904D01*
X144716619Y-60013809D01*
X144678524Y-59975714D01*
X144640429Y-59899523D01*
X144602333Y-59747142D01*
X144602333Y-59556666D01*
X144640429Y-59404285D01*
X144678524Y-59328095D01*
X144716619Y-59290000D01*
X144792810Y-59251904D01*
X145364238Y-59328095D02*
X145402333Y-59290000D01*
X145478524Y-59251904D01*
X145669000Y-59251904D01*
X145745190Y-59290000D01*
X145783286Y-59328095D01*
X145821381Y-59404285D01*
X145821381Y-59480476D01*
X145783286Y-59594761D01*
X145326143Y-60051904D01*
X145821381Y-60051904D01*
X146507095Y-59518571D02*
X146507095Y-60051904D01*
X146316619Y-59213809D02*
X146126143Y-59785238D01*
X146621381Y-59785238D01*
X144792810Y-56741904D02*
X144869000Y-56741904D01*
X144945190Y-56780000D01*
X144983286Y-56818095D01*
X145021381Y-56894285D01*
X145059476Y-57046666D01*
X145059476Y-57237142D01*
X145021381Y-57389523D01*
X144983286Y-57465714D01*
X144945190Y-57503809D01*
X144869000Y-57541904D01*
X144792810Y-57541904D01*
X144716619Y-57503809D01*
X144678524Y-57465714D01*
X144640429Y-57389523D01*
X144602333Y-57237142D01*
X144602333Y-57046666D01*
X144640429Y-56894285D01*
X144678524Y-56818095D01*
X144716619Y-56780000D01*
X144792810Y-56741904D01*
X145364238Y-56818095D02*
X145402333Y-56780000D01*
X145478524Y-56741904D01*
X145669000Y-56741904D01*
X145745190Y-56780000D01*
X145783286Y-56818095D01*
X145821381Y-56894285D01*
X145821381Y-56970476D01*
X145783286Y-57084761D01*
X145326143Y-57541904D01*
X145821381Y-57541904D01*
X146126143Y-56818095D02*
X146164238Y-56780000D01*
X146240429Y-56741904D01*
X146430905Y-56741904D01*
X146507095Y-56780000D01*
X146545190Y-56818095D01*
X146583286Y-56894285D01*
X146583286Y-56970476D01*
X146545190Y-57084761D01*
X146088048Y-57541904D01*
X146583286Y-57541904D01*
X145059476Y-46590000D02*
X144983285Y-46551904D01*
X144869000Y-46551904D01*
X144754714Y-46590000D01*
X144678523Y-46666190D01*
X144640428Y-46742380D01*
X144602333Y-46894761D01*
X144602333Y-47009047D01*
X144640428Y-47161428D01*
X144678523Y-47237619D01*
X144754714Y-47313809D01*
X144869000Y-47351904D01*
X144945190Y-47351904D01*
X145059476Y-47313809D01*
X145097571Y-47275714D01*
X145097571Y-47009047D01*
X144945190Y-47009047D01*
X145440428Y-47351904D02*
X145440428Y-46551904D01*
X145897571Y-47351904D01*
X145897571Y-46551904D01*
X146278523Y-47351904D02*
X146278523Y-46551904D01*
X146469000Y-46551904D01*
X146583285Y-46590000D01*
X146659476Y-46666190D01*
X146697571Y-46742380D01*
X146735666Y-46894761D01*
X146735666Y-47009047D01*
X146697571Y-47161428D01*
X146659476Y-47237619D01*
X146583285Y-47313809D01*
X146469000Y-47351904D01*
X146278523Y-47351904D01*
X145059476Y-49130000D02*
X144983285Y-49091904D01*
X144869000Y-49091904D01*
X144754714Y-49130000D01*
X144678523Y-49206190D01*
X144640428Y-49282380D01*
X144602333Y-49434761D01*
X144602333Y-49549047D01*
X144640428Y-49701428D01*
X144678523Y-49777619D01*
X144754714Y-49853809D01*
X144869000Y-49891904D01*
X144945190Y-49891904D01*
X145059476Y-49853809D01*
X145097571Y-49815714D01*
X145097571Y-49549047D01*
X144945190Y-49549047D01*
X145440428Y-49891904D02*
X145440428Y-49091904D01*
X145897571Y-49891904D01*
X145897571Y-49091904D01*
X146278523Y-49891904D02*
X146278523Y-49091904D01*
X146469000Y-49091904D01*
X146583285Y-49130000D01*
X146659476Y-49206190D01*
X146697571Y-49282380D01*
X146735666Y-49434761D01*
X146735666Y-49549047D01*
X146697571Y-49701428D01*
X146659476Y-49777619D01*
X146583285Y-49853809D01*
X146469000Y-49891904D01*
X146278523Y-49891904D01*
X144792810Y-51641904D02*
X144869000Y-51641904D01*
X144945190Y-51680000D01*
X144983286Y-51718095D01*
X145021381Y-51794285D01*
X145059476Y-51946666D01*
X145059476Y-52137142D01*
X145021381Y-52289523D01*
X144983286Y-52365714D01*
X144945190Y-52403809D01*
X144869000Y-52441904D01*
X144792810Y-52441904D01*
X144716619Y-52403809D01*
X144678524Y-52365714D01*
X144640429Y-52289523D01*
X144602333Y-52137142D01*
X144602333Y-51946666D01*
X144640429Y-51794285D01*
X144678524Y-51718095D01*
X144716619Y-51680000D01*
X144792810Y-51641904D01*
X145821381Y-52441904D02*
X145364238Y-52441904D01*
X145592810Y-52441904D02*
X145592810Y-51641904D01*
X145516619Y-51756190D01*
X145440429Y-51832380D01*
X145364238Y-51870476D01*
X146088048Y-51641904D02*
X146621381Y-51641904D01*
X146278524Y-52441904D01*
X144792810Y-54241904D02*
X144869000Y-54241904D01*
X144945190Y-54280000D01*
X144983286Y-54318095D01*
X145021381Y-54394285D01*
X145059476Y-54546666D01*
X145059476Y-54737142D01*
X145021381Y-54889523D01*
X144983286Y-54965714D01*
X144945190Y-55003809D01*
X144869000Y-55041904D01*
X144792810Y-55041904D01*
X144716619Y-55003809D01*
X144678524Y-54965714D01*
X144640429Y-54889523D01*
X144602333Y-54737142D01*
X144602333Y-54546666D01*
X144640429Y-54394285D01*
X144678524Y-54318095D01*
X144716619Y-54280000D01*
X144792810Y-54241904D01*
X145364238Y-54318095D02*
X145402333Y-54280000D01*
X145478524Y-54241904D01*
X145669000Y-54241904D01*
X145745190Y-54280000D01*
X145783286Y-54318095D01*
X145821381Y-54394285D01*
X145821381Y-54470476D01*
X145783286Y-54584761D01*
X145326143Y-55041904D01*
X145821381Y-55041904D01*
X146316619Y-54241904D02*
X146392810Y-54241904D01*
X146469000Y-54280000D01*
X146507095Y-54318095D01*
X146545190Y-54394285D01*
X146583286Y-54546666D01*
X146583286Y-54737142D01*
X146545190Y-54889523D01*
X146507095Y-54965714D01*
X146469000Y-55003809D01*
X146392810Y-55041904D01*
X146316619Y-55041904D01*
X146240429Y-55003809D01*
X146202333Y-54965714D01*
X146164238Y-54889523D01*
X146126143Y-54737142D01*
X146126143Y-54546666D01*
X146164238Y-54394285D01*
X146202333Y-54318095D01*
X146240429Y-54280000D01*
X146316619Y-54241904D01*
X144792810Y-43941904D02*
X144869000Y-43941904D01*
X144945190Y-43980000D01*
X144983286Y-44018095D01*
X145021381Y-44094285D01*
X145059476Y-44246666D01*
X145059476Y-44437142D01*
X145021381Y-44589523D01*
X144983286Y-44665714D01*
X144945190Y-44703809D01*
X144869000Y-44741904D01*
X144792810Y-44741904D01*
X144716619Y-44703809D01*
X144678524Y-44665714D01*
X144640429Y-44589523D01*
X144602333Y-44437142D01*
X144602333Y-44246666D01*
X144640429Y-44094285D01*
X144678524Y-44018095D01*
X144716619Y-43980000D01*
X144792810Y-43941904D01*
X145554714Y-43941904D02*
X145630905Y-43941904D01*
X145707095Y-43980000D01*
X145745190Y-44018095D01*
X145783286Y-44094285D01*
X145821381Y-44246666D01*
X145821381Y-44437142D01*
X145783286Y-44589523D01*
X145745190Y-44665714D01*
X145707095Y-44703809D01*
X145630905Y-44741904D01*
X145554714Y-44741904D01*
X145478524Y-44703809D01*
X145440429Y-44665714D01*
X145402333Y-44589523D01*
X145364238Y-44437142D01*
X145364238Y-44246666D01*
X145402333Y-44094285D01*
X145440429Y-44018095D01*
X145478524Y-43980000D01*
X145554714Y-43941904D01*
X146278524Y-44284761D02*
X146202333Y-44246666D01*
X146164238Y-44208571D01*
X146126143Y-44132380D01*
X146126143Y-44094285D01*
X146164238Y-44018095D01*
X146202333Y-43980000D01*
X146278524Y-43941904D01*
X146430905Y-43941904D01*
X146507095Y-43980000D01*
X146545190Y-44018095D01*
X146583286Y-44094285D01*
X146583286Y-44132380D01*
X146545190Y-44208571D01*
X146507095Y-44246666D01*
X146430905Y-44284761D01*
X146278524Y-44284761D01*
X146202333Y-44322857D01*
X146164238Y-44360952D01*
X146126143Y-44437142D01*
X146126143Y-44589523D01*
X146164238Y-44665714D01*
X146202333Y-44703809D01*
X146278524Y-44741904D01*
X146430905Y-44741904D01*
X146507095Y-44703809D01*
X146545190Y-44665714D01*
X146583286Y-44589523D01*
X146583286Y-44437142D01*
X146545190Y-44360952D01*
X146507095Y-44322857D01*
X146430905Y-44284761D01*
X144792810Y-41471904D02*
X144869000Y-41471904D01*
X144945190Y-41510000D01*
X144983286Y-41548095D01*
X145021381Y-41624285D01*
X145059476Y-41776666D01*
X145059476Y-41967142D01*
X145021381Y-42119523D01*
X144983286Y-42195714D01*
X144945190Y-42233809D01*
X144869000Y-42271904D01*
X144792810Y-42271904D01*
X144716619Y-42233809D01*
X144678524Y-42195714D01*
X144640429Y-42119523D01*
X144602333Y-41967142D01*
X144602333Y-41776666D01*
X144640429Y-41624285D01*
X144678524Y-41548095D01*
X144716619Y-41510000D01*
X144792810Y-41471904D01*
X145554714Y-41471904D02*
X145630905Y-41471904D01*
X145707095Y-41510000D01*
X145745190Y-41548095D01*
X145783286Y-41624285D01*
X145821381Y-41776666D01*
X145821381Y-41967142D01*
X145783286Y-42119523D01*
X145745190Y-42195714D01*
X145707095Y-42233809D01*
X145630905Y-42271904D01*
X145554714Y-42271904D01*
X145478524Y-42233809D01*
X145440429Y-42195714D01*
X145402333Y-42119523D01*
X145364238Y-41967142D01*
X145364238Y-41776666D01*
X145402333Y-41624285D01*
X145440429Y-41548095D01*
X145478524Y-41510000D01*
X145554714Y-41471904D01*
X146507095Y-41471904D02*
X146354714Y-41471904D01*
X146278524Y-41510000D01*
X146240429Y-41548095D01*
X146164238Y-41662380D01*
X146126143Y-41814761D01*
X146126143Y-42119523D01*
X146164238Y-42195714D01*
X146202333Y-42233809D01*
X146278524Y-42271904D01*
X146430905Y-42271904D01*
X146507095Y-42233809D01*
X146545190Y-42195714D01*
X146583286Y-42119523D01*
X146583286Y-41929047D01*
X146545190Y-41852857D01*
X146507095Y-41814761D01*
X146430905Y-41776666D01*
X146278524Y-41776666D01*
X146202333Y-41814761D01*
X146164238Y-41852857D01*
X146126143Y-41929047D01*
%TO.C,BT1*%
X150344285Y-84468571D02*
X150487142Y-84516190D01*
X150534761Y-84563809D01*
X150582380Y-84659047D01*
X150582380Y-84801904D01*
X150534761Y-84897142D01*
X150487142Y-84944761D01*
X150391904Y-84992380D01*
X150010952Y-84992380D01*
X150010952Y-83992380D01*
X150344285Y-83992380D01*
X150439523Y-84040000D01*
X150487142Y-84087619D01*
X150534761Y-84182857D01*
X150534761Y-84278095D01*
X150487142Y-84373333D01*
X150439523Y-84420952D01*
X150344285Y-84468571D01*
X150010952Y-84468571D01*
X150868095Y-83992380D02*
X151439523Y-83992380D01*
X151153809Y-84992380D02*
X151153809Y-83992380D01*
X152296666Y-84992380D02*
X151725238Y-84992380D01*
X152010952Y-84992380D02*
X152010952Y-83992380D01*
X151915714Y-84135238D01*
X151820476Y-84230476D01*
X151725238Y-84278095D01*
%TO.C,SW15*%
X109638295Y-93813448D02*
X109763959Y-93896419D01*
X109993942Y-93958042D01*
X110098259Y-93936695D01*
X110156580Y-93903024D01*
X110227226Y-93823355D01*
X110251876Y-93731363D01*
X110230529Y-93627045D01*
X110196857Y-93568724D01*
X110117189Y-93498078D01*
X109945528Y-93402782D01*
X109865859Y-93332137D01*
X109832188Y-93273815D01*
X109810841Y-93169498D01*
X109835490Y-93077505D01*
X109906136Y-92997837D01*
X109964457Y-92964165D01*
X110068775Y-92942818D01*
X110298757Y-93004441D01*
X110424422Y-93087412D01*
X110758722Y-93127689D02*
X110729885Y-94155238D01*
X111098742Y-93514590D01*
X111097857Y-94253836D01*
X111586658Y-93349533D01*
X112201772Y-94549629D02*
X111649815Y-94401732D01*
X111925793Y-94475681D02*
X112184612Y-93509755D01*
X112055645Y-93623095D01*
X111939003Y-93690438D01*
X111834685Y-93711785D01*
X113334524Y-93817873D02*
X112874559Y-93694625D01*
X112705316Y-94142265D01*
X112763637Y-94108594D01*
X112867955Y-94087247D01*
X113097937Y-94148870D01*
X113177605Y-94219516D01*
X113211277Y-94277837D01*
X113232624Y-94382155D01*
X113171000Y-94612137D01*
X113100354Y-94691806D01*
X113042033Y-94725477D01*
X112937716Y-94746824D01*
X112707733Y-94685201D01*
X112628065Y-94614555D01*
X112594393Y-94556234D01*
%TO.C,SW12*%
X40200686Y-55514448D02*
X40343543Y-55562067D01*
X40581638Y-55562067D01*
X40676876Y-55514448D01*
X40724495Y-55466829D01*
X40772114Y-55371591D01*
X40772114Y-55276353D01*
X40724495Y-55181115D01*
X40676876Y-55133496D01*
X40581638Y-55085877D01*
X40391162Y-55038258D01*
X40295924Y-54990639D01*
X40248305Y-54943020D01*
X40200686Y-54847782D01*
X40200686Y-54752544D01*
X40248305Y-54657306D01*
X40295924Y-54609687D01*
X40391162Y-54562067D01*
X40629257Y-54562067D01*
X40772114Y-54609687D01*
X41105448Y-54562067D02*
X41343543Y-55562067D01*
X41534019Y-54847782D01*
X41724495Y-55562067D01*
X41962590Y-54562067D01*
X42867352Y-55562067D02*
X42295924Y-55562067D01*
X42581638Y-55562067D02*
X42581638Y-54562067D01*
X42486400Y-54704925D01*
X42391162Y-54800163D01*
X42295924Y-54847782D01*
X43248305Y-54657306D02*
X43295924Y-54609687D01*
X43391162Y-54562067D01*
X43629257Y-54562067D01*
X43724495Y-54609687D01*
X43772114Y-54657306D01*
X43819733Y-54752544D01*
X43819733Y-54847782D01*
X43772114Y-54990639D01*
X43200686Y-55562067D01*
X43819733Y-55562067D01*
%TO.C,SW11*%
X58230510Y-55514448D02*
X58373367Y-55562067D01*
X58611462Y-55562067D01*
X58706700Y-55514448D01*
X58754319Y-55466829D01*
X58801938Y-55371591D01*
X58801938Y-55276353D01*
X58754319Y-55181115D01*
X58706700Y-55133496D01*
X58611462Y-55085877D01*
X58420986Y-55038258D01*
X58325748Y-54990639D01*
X58278129Y-54943020D01*
X58230510Y-54847782D01*
X58230510Y-54752544D01*
X58278129Y-54657306D01*
X58325748Y-54609687D01*
X58420986Y-54562067D01*
X58659081Y-54562067D01*
X58801938Y-54609687D01*
X59135272Y-54562067D02*
X59373367Y-55562067D01*
X59563843Y-54847782D01*
X59754319Y-55562067D01*
X59992414Y-54562067D01*
X60897176Y-55562067D02*
X60325748Y-55562067D01*
X60611462Y-55562067D02*
X60611462Y-54562067D01*
X60516224Y-54704925D01*
X60420986Y-54800163D01*
X60325748Y-54847782D01*
X61849557Y-55562067D02*
X61278129Y-55562067D01*
X61563843Y-55562067D02*
X61563843Y-54562067D01*
X61468605Y-54704925D01*
X61373367Y-54800163D01*
X61278129Y-54847782D01*
%TO.C,SW10*%
X76248084Y-51082838D02*
X76390941Y-51130457D01*
X76629036Y-51130457D01*
X76724274Y-51082838D01*
X76771893Y-51035219D01*
X76819512Y-50939981D01*
X76819512Y-50844743D01*
X76771893Y-50749505D01*
X76724274Y-50701886D01*
X76629036Y-50654267D01*
X76438560Y-50606648D01*
X76343322Y-50559029D01*
X76295703Y-50511410D01*
X76248084Y-50416172D01*
X76248084Y-50320934D01*
X76295703Y-50225696D01*
X76343322Y-50178077D01*
X76438560Y-50130457D01*
X76676655Y-50130457D01*
X76819512Y-50178077D01*
X77152846Y-50130457D02*
X77390941Y-51130457D01*
X77581417Y-50416172D01*
X77771893Y-51130457D01*
X78009988Y-50130457D01*
X78914750Y-51130457D02*
X78343322Y-51130457D01*
X78629036Y-51130457D02*
X78629036Y-50130457D01*
X78533798Y-50273315D01*
X78438560Y-50368553D01*
X78343322Y-50416172D01*
X79533798Y-50130457D02*
X79629036Y-50130457D01*
X79724274Y-50178077D01*
X79771893Y-50225696D01*
X79819512Y-50320934D01*
X79867131Y-50511410D01*
X79867131Y-50749505D01*
X79819512Y-50939981D01*
X79771893Y-51035219D01*
X79724274Y-51082838D01*
X79629036Y-51130457D01*
X79533798Y-51130457D01*
X79438560Y-51082838D01*
X79390941Y-51035219D01*
X79343322Y-50939981D01*
X79295703Y-50749505D01*
X79295703Y-50511410D01*
X79343322Y-50320934D01*
X79390941Y-50225696D01*
X79438560Y-50178077D01*
X79533798Y-50130457D01*
%TO.C,SW9*%
X94722887Y-48012011D02*
X94865744Y-48059630D01*
X95103840Y-48059630D01*
X95199078Y-48012011D01*
X95246697Y-47964392D01*
X95294316Y-47869154D01*
X95294316Y-47773916D01*
X95246697Y-47678678D01*
X95199078Y-47631059D01*
X95103840Y-47583440D01*
X94913363Y-47535821D01*
X94818125Y-47488202D01*
X94770506Y-47440583D01*
X94722887Y-47345345D01*
X94722887Y-47250107D01*
X94770506Y-47154869D01*
X94818125Y-47107250D01*
X94913363Y-47059630D01*
X95151459Y-47059630D01*
X95294316Y-47107250D01*
X95627649Y-47059630D02*
X95865744Y-48059630D01*
X96056221Y-47345345D01*
X96246697Y-48059630D01*
X96484792Y-47059630D01*
X96913363Y-48059630D02*
X97103840Y-48059630D01*
X97199078Y-48012011D01*
X97246697Y-47964392D01*
X97341935Y-47821535D01*
X97389554Y-47631059D01*
X97389554Y-47250107D01*
X97341935Y-47154869D01*
X97294316Y-47107250D01*
X97199078Y-47059630D01*
X97008601Y-47059630D01*
X96913363Y-47107250D01*
X96865744Y-47154869D01*
X96818125Y-47250107D01*
X96818125Y-47488202D01*
X96865744Y-47583440D01*
X96913363Y-47631059D01*
X97008601Y-47678678D01*
X97199078Y-47678678D01*
X97294316Y-47631059D01*
X97341935Y-47583440D01*
X97389554Y-47488202D01*
%TO.C,SW8*%
X112740576Y-51067768D02*
X112883433Y-51115387D01*
X113121529Y-51115387D01*
X113216767Y-51067768D01*
X113264386Y-51020149D01*
X113312005Y-50924911D01*
X113312005Y-50829673D01*
X113264386Y-50734435D01*
X113216767Y-50686816D01*
X113121529Y-50639197D01*
X112931052Y-50591578D01*
X112835814Y-50543959D01*
X112788195Y-50496340D01*
X112740576Y-50401102D01*
X112740576Y-50305864D01*
X112788195Y-50210626D01*
X112835814Y-50163007D01*
X112931052Y-50115387D01*
X113169148Y-50115387D01*
X113312005Y-50163007D01*
X113645338Y-50115387D02*
X113883433Y-51115387D01*
X114073910Y-50401102D01*
X114264386Y-51115387D01*
X114502481Y-50115387D01*
X115026290Y-50543959D02*
X114931052Y-50496340D01*
X114883433Y-50448721D01*
X114835814Y-50353483D01*
X114835814Y-50305864D01*
X114883433Y-50210626D01*
X114931052Y-50163007D01*
X115026290Y-50115387D01*
X115216767Y-50115387D01*
X115312005Y-50163007D01*
X115359624Y-50210626D01*
X115407243Y-50305864D01*
X115407243Y-50353483D01*
X115359624Y-50448721D01*
X115312005Y-50496340D01*
X115216767Y-50543959D01*
X115026290Y-50543959D01*
X114931052Y-50591578D01*
X114883433Y-50639197D01*
X114835814Y-50734435D01*
X114835814Y-50924911D01*
X114883433Y-51020149D01*
X114931052Y-51067768D01*
X115026290Y-51115387D01*
X115216767Y-51115387D01*
X115312005Y-51067768D01*
X115359624Y-51020149D01*
X115407243Y-50924911D01*
X115407243Y-50734435D01*
X115359624Y-50639197D01*
X115312005Y-50591578D01*
X115216767Y-50543959D01*
%TO.C,SW7*%
X130742970Y-51067768D02*
X130885827Y-51115387D01*
X131123923Y-51115387D01*
X131219161Y-51067768D01*
X131266780Y-51020149D01*
X131314399Y-50924911D01*
X131314399Y-50829673D01*
X131266780Y-50734435D01*
X131219161Y-50686816D01*
X131123923Y-50639197D01*
X130933446Y-50591578D01*
X130838208Y-50543959D01*
X130790589Y-50496340D01*
X130742970Y-50401102D01*
X130742970Y-50305864D01*
X130790589Y-50210626D01*
X130838208Y-50163007D01*
X130933446Y-50115387D01*
X131171542Y-50115387D01*
X131314399Y-50163007D01*
X131647732Y-50115387D02*
X131885827Y-51115387D01*
X132076304Y-50401102D01*
X132266780Y-51115387D01*
X132504875Y-50115387D01*
X132790589Y-50115387D02*
X133457256Y-50115387D01*
X133028684Y-51115387D01*
%TO.C,SW6*%
X40676876Y-38542741D02*
X40819733Y-38590360D01*
X41057829Y-38590360D01*
X41153067Y-38542741D01*
X41200686Y-38495122D01*
X41248305Y-38399884D01*
X41248305Y-38304646D01*
X41200686Y-38209408D01*
X41153067Y-38161789D01*
X41057829Y-38114170D01*
X40867352Y-38066551D01*
X40772114Y-38018932D01*
X40724495Y-37971313D01*
X40676876Y-37876075D01*
X40676876Y-37780837D01*
X40724495Y-37685599D01*
X40772114Y-37637980D01*
X40867352Y-37590360D01*
X41105448Y-37590360D01*
X41248305Y-37637980D01*
X41581638Y-37590360D02*
X41819733Y-38590360D01*
X42010210Y-37876075D01*
X42200686Y-38590360D01*
X42438781Y-37590360D01*
X43248305Y-37590360D02*
X43057829Y-37590360D01*
X42962590Y-37637980D01*
X42914971Y-37685599D01*
X42819733Y-37828456D01*
X42772114Y-38018932D01*
X42772114Y-38399884D01*
X42819733Y-38495122D01*
X42867352Y-38542741D01*
X42962590Y-38590360D01*
X43153067Y-38590360D01*
X43248305Y-38542741D01*
X43295924Y-38495122D01*
X43343543Y-38399884D01*
X43343543Y-38161789D01*
X43295924Y-38066551D01*
X43248305Y-38018932D01*
X43153067Y-37971313D01*
X42962590Y-37971313D01*
X42867352Y-38018932D01*
X42819733Y-38066551D01*
X42772114Y-38161789D01*
%TO.C,SW5*%
X58706700Y-38542741D02*
X58849557Y-38590360D01*
X59087653Y-38590360D01*
X59182891Y-38542741D01*
X59230510Y-38495122D01*
X59278129Y-38399884D01*
X59278129Y-38304646D01*
X59230510Y-38209408D01*
X59182891Y-38161789D01*
X59087653Y-38114170D01*
X58897176Y-38066551D01*
X58801938Y-38018932D01*
X58754319Y-37971313D01*
X58706700Y-37876075D01*
X58706700Y-37780837D01*
X58754319Y-37685599D01*
X58801938Y-37637980D01*
X58897176Y-37590360D01*
X59135272Y-37590360D01*
X59278129Y-37637980D01*
X59611462Y-37590360D02*
X59849557Y-38590360D01*
X60040034Y-37876075D01*
X60230510Y-38590360D01*
X60468605Y-37590360D01*
X61325748Y-37590360D02*
X60849557Y-37590360D01*
X60801938Y-38066551D01*
X60849557Y-38018932D01*
X60944795Y-37971313D01*
X61182891Y-37971313D01*
X61278129Y-38018932D01*
X61325748Y-38066551D01*
X61373367Y-38161789D01*
X61373367Y-38399884D01*
X61325748Y-38495122D01*
X61278129Y-38542741D01*
X61182891Y-38590360D01*
X60944795Y-38590360D01*
X60849557Y-38542741D01*
X60801938Y-38495122D01*
%TO.C,SW4*%
X76724274Y-34111131D02*
X76867131Y-34158750D01*
X77105227Y-34158750D01*
X77200465Y-34111131D01*
X77248084Y-34063512D01*
X77295703Y-33968274D01*
X77295703Y-33873036D01*
X77248084Y-33777798D01*
X77200465Y-33730179D01*
X77105227Y-33682560D01*
X76914750Y-33634941D01*
X76819512Y-33587322D01*
X76771893Y-33539703D01*
X76724274Y-33444465D01*
X76724274Y-33349227D01*
X76771893Y-33253989D01*
X76819512Y-33206370D01*
X76914750Y-33158750D01*
X77152846Y-33158750D01*
X77295703Y-33206370D01*
X77629036Y-33158750D02*
X77867131Y-34158750D01*
X78057608Y-33444465D01*
X78248084Y-34158750D01*
X78486179Y-33158750D01*
X79295703Y-33492084D02*
X79295703Y-34158750D01*
X79057608Y-33111131D02*
X78819512Y-33825417D01*
X79438560Y-33825417D01*
%TO.C,SW3*%
X94722887Y-31040304D02*
X94865744Y-31087923D01*
X95103840Y-31087923D01*
X95199078Y-31040304D01*
X95246697Y-30992685D01*
X95294316Y-30897447D01*
X95294316Y-30802209D01*
X95246697Y-30706971D01*
X95199078Y-30659352D01*
X95103840Y-30611733D01*
X94913363Y-30564114D01*
X94818125Y-30516495D01*
X94770506Y-30468876D01*
X94722887Y-30373638D01*
X94722887Y-30278400D01*
X94770506Y-30183162D01*
X94818125Y-30135543D01*
X94913363Y-30087923D01*
X95151459Y-30087923D01*
X95294316Y-30135543D01*
X95627649Y-30087923D02*
X95865744Y-31087923D01*
X96056221Y-30373638D01*
X96246697Y-31087923D01*
X96484792Y-30087923D01*
X96770506Y-30087923D02*
X97389554Y-30087923D01*
X97056221Y-30468876D01*
X97199078Y-30468876D01*
X97294316Y-30516495D01*
X97341935Y-30564114D01*
X97389554Y-30659352D01*
X97389554Y-30897447D01*
X97341935Y-30992685D01*
X97294316Y-31040304D01*
X97199078Y-31087923D01*
X96913363Y-31087923D01*
X96818125Y-31040304D01*
X96770506Y-30992685D01*
%TO.C,SW2*%
X112744272Y-34066064D02*
X112887129Y-34113683D01*
X113125225Y-34113683D01*
X113220463Y-34066064D01*
X113268082Y-34018445D01*
X113315701Y-33923207D01*
X113315701Y-33827969D01*
X113268082Y-33732731D01*
X113220463Y-33685112D01*
X113125225Y-33637493D01*
X112934748Y-33589874D01*
X112839510Y-33542255D01*
X112791891Y-33494636D01*
X112744272Y-33399398D01*
X112744272Y-33304160D01*
X112791891Y-33208922D01*
X112839510Y-33161303D01*
X112934748Y-33113683D01*
X113172844Y-33113683D01*
X113315701Y-33161303D01*
X113649034Y-33113683D02*
X113887129Y-34113683D01*
X114077606Y-33399398D01*
X114268082Y-34113683D01*
X114506177Y-33113683D01*
X114839510Y-33208922D02*
X114887129Y-33161303D01*
X114982367Y-33113683D01*
X115220463Y-33113683D01*
X115315701Y-33161303D01*
X115363320Y-33208922D01*
X115410939Y-33304160D01*
X115410939Y-33399398D01*
X115363320Y-33542255D01*
X114791891Y-34113683D01*
X115410939Y-34113683D01*
%TO.C,SW1*%
X130746666Y-34066064D02*
X130889523Y-34113683D01*
X131127619Y-34113683D01*
X131222857Y-34066064D01*
X131270476Y-34018445D01*
X131318095Y-33923207D01*
X131318095Y-33827969D01*
X131270476Y-33732731D01*
X131222857Y-33685112D01*
X131127619Y-33637493D01*
X130937142Y-33589874D01*
X130841904Y-33542255D01*
X130794285Y-33494636D01*
X130746666Y-33399398D01*
X130746666Y-33304160D01*
X130794285Y-33208922D01*
X130841904Y-33161303D01*
X130937142Y-33113683D01*
X131175238Y-33113683D01*
X131318095Y-33161303D01*
X131651428Y-33113683D02*
X131889523Y-34113683D01*
X132080000Y-33399398D01*
X132270476Y-34113683D01*
X132508571Y-33113683D01*
X133413333Y-34113683D02*
X132841904Y-34113683D01*
X133127619Y-34113683D02*
X133127619Y-33113683D01*
X133032380Y-33256541D01*
X132937142Y-33351779D01*
X132841904Y-33399398D01*
%TO.C,SW13*%
X144459518Y-103143767D02*
X144585182Y-103226738D01*
X144815165Y-103288361D01*
X144919482Y-103267014D01*
X144977803Y-103233343D01*
X145048449Y-103153674D01*
X145073099Y-103061682D01*
X145051752Y-102957364D01*
X145018080Y-102899043D01*
X144938412Y-102828397D01*
X144766751Y-102733101D01*
X144687082Y-102662456D01*
X144653411Y-102604134D01*
X144632064Y-102499817D01*
X144656713Y-102407824D01*
X144727359Y-102328156D01*
X144785680Y-102294484D01*
X144889998Y-102273137D01*
X145119980Y-102334760D01*
X145245645Y-102417731D01*
X145579945Y-102458008D02*
X145551108Y-103485557D01*
X145919965Y-102844909D01*
X145919080Y-103584155D01*
X146407881Y-102679852D01*
X147022995Y-103879948D02*
X146471038Y-103732051D01*
X146747016Y-103806000D02*
X147005835Y-102840074D01*
X146876868Y-102953414D01*
X146760226Y-103020757D01*
X146655908Y-103042104D01*
X147603789Y-103000295D02*
X148201744Y-103160516D01*
X147781171Y-103442215D01*
X147919160Y-103479189D01*
X147998828Y-103549835D01*
X148032500Y-103608156D01*
X148053847Y-103712474D01*
X147992223Y-103942456D01*
X147921577Y-104022125D01*
X147863256Y-104055796D01*
X147758939Y-104077143D01*
X147482960Y-104003195D01*
X147403292Y-103932549D01*
X147369620Y-103874228D01*
%TO.C,SW14*%
X127054470Y-98480098D02*
X127180134Y-98563069D01*
X127410117Y-98624692D01*
X127514434Y-98603345D01*
X127572755Y-98569674D01*
X127643401Y-98490005D01*
X127668051Y-98398013D01*
X127646704Y-98293695D01*
X127613032Y-98235374D01*
X127533364Y-98164728D01*
X127361703Y-98069432D01*
X127282034Y-97998787D01*
X127248363Y-97940465D01*
X127227016Y-97836148D01*
X127251665Y-97744155D01*
X127322311Y-97664487D01*
X127380632Y-97630815D01*
X127484950Y-97609468D01*
X127714932Y-97671091D01*
X127840597Y-97754062D01*
X128174897Y-97794339D02*
X128146060Y-98821888D01*
X128514917Y-98181240D01*
X128514032Y-98920486D01*
X129002833Y-98016183D01*
X129617947Y-99216279D02*
X129065990Y-99068382D01*
X129341968Y-99142331D02*
X129600787Y-98176405D01*
X129471820Y-98289745D01*
X129355178Y-98357088D01*
X129250860Y-98378435D01*
X130618430Y-98794173D02*
X130445884Y-99438124D01*
X130487045Y-98364578D02*
X130072192Y-98992901D01*
X130670146Y-99153123D01*
%TO.C,Reset1*%
X156952380Y-77914285D02*
X156476190Y-78247619D01*
X156952380Y-78485714D02*
X155952380Y-78485714D01*
X155952380Y-78104761D01*
X156000000Y-78009523D01*
X156047619Y-77961904D01*
X156142857Y-77914285D01*
X156285714Y-77914285D01*
X156380952Y-77961904D01*
X156428571Y-78009523D01*
X156476190Y-78104761D01*
X156476190Y-78485714D01*
X156904761Y-77104761D02*
X156952380Y-77200000D01*
X156952380Y-77390476D01*
X156904761Y-77485714D01*
X156809523Y-77533333D01*
X156428571Y-77533333D01*
X156333333Y-77485714D01*
X156285714Y-77390476D01*
X156285714Y-77200000D01*
X156333333Y-77104761D01*
X156428571Y-77057142D01*
X156523809Y-77057142D01*
X156619047Y-77533333D01*
X156904761Y-76676190D02*
X156952380Y-76580952D01*
X156952380Y-76390476D01*
X156904761Y-76295238D01*
X156809523Y-76247619D01*
X156761904Y-76247619D01*
X156666666Y-76295238D01*
X156619047Y-76390476D01*
X156619047Y-76533333D01*
X156571428Y-76628571D01*
X156476190Y-76676190D01*
X156428571Y-76676190D01*
X156333333Y-76628571D01*
X156285714Y-76533333D01*
X156285714Y-76390476D01*
X156333333Y-76295238D01*
X156904761Y-75438095D02*
X156952380Y-75533333D01*
X156952380Y-75723809D01*
X156904761Y-75819047D01*
X156809523Y-75866666D01*
X156428571Y-75866666D01*
X156333333Y-75819047D01*
X156285714Y-75723809D01*
X156285714Y-75533333D01*
X156333333Y-75438095D01*
X156428571Y-75390476D01*
X156523809Y-75390476D01*
X156619047Y-75866666D01*
X156285714Y-75104761D02*
X156285714Y-74723809D01*
X155952380Y-74961904D02*
X156809523Y-74961904D01*
X156904761Y-74914285D01*
X156952380Y-74819047D01*
X156952380Y-74723809D01*
X156952380Y-73866666D02*
X156952380Y-74438095D01*
X156952380Y-74152380D02*
X155952380Y-74152380D01*
X156095238Y-74247619D01*
X156190476Y-74342857D01*
X156238095Y-74438095D01*
%TD*%
M02*
