%TF.GenerationSoftware,KiCad,Pcbnew,(5.1.12)-1*%
%TF.CreationDate,2021-12-12T00:25:17+00:00*%
%TF.ProjectId,StenoMi,5374656e-6f4d-4692-9e6b-696361645f70,rev?*%
%TF.SameCoordinates,Original*%
%TF.FileFunction,Legend,Bot*%
%TF.FilePolarity,Positive*%
%FSLAX46Y46*%
G04 Gerber Fmt 4.6, Leading zero omitted, Abs format (unit mm)*
G04 Created by KiCad (PCBNEW (5.1.12)-1) date 2021-12-12 00:25:17*
%MOMM*%
%LPD*%
G01*
G04 APERTURE LIST*
%ADD10C,0.381000*%
%ADD11C,0.120000*%
%ADD12C,0.150000*%
G04 APERTURE END LIST*
D10*
%TO.C,U1*%
X160020000Y-71120000D02*
X160020000Y-38100000D01*
X142240000Y-71120000D02*
X160020000Y-71120000D01*
X142240000Y-38100000D02*
X142240000Y-71120000D01*
X160020000Y-38100000D02*
X142240000Y-38100000D01*
D11*
%TO.C,Reset2*%
X160320000Y-78270000D02*
X160320000Y-74130000D01*
X157480000Y-74130000D02*
X157180000Y-74130000D01*
X157180000Y-74130000D02*
X157180000Y-78270000D01*
X160020000Y-78270000D02*
X160320000Y-78270000D01*
X157180000Y-78270000D02*
X157480000Y-78270000D01*
X160320000Y-74130000D02*
X160020000Y-74130000D01*
%TO.C,BT2*%
X147070000Y-77800000D02*
X147070000Y-82050000D01*
X147070000Y-82050000D02*
X148090000Y-82050000D01*
X148090000Y-82050000D02*
X148090000Y-80450000D01*
X148090000Y-80450000D02*
X149370000Y-80450000D01*
X149370000Y-80450000D02*
X149370000Y-83340000D01*
X155190000Y-77800000D02*
X155190000Y-82050000D01*
X155190000Y-82050000D02*
X154170000Y-82050000D01*
X154170000Y-82050000D02*
X154170000Y-80450000D01*
X154170000Y-80450000D02*
X152890000Y-80450000D01*
X148790000Y-74230000D02*
X153470000Y-74230000D01*
D12*
%TO.C,SW15*%
X118836039Y-93524388D02*
X118577219Y-94490314D01*
X118577219Y-94490314D02*
X117611294Y-94231495D01*
X121234760Y-80708533D02*
X122200686Y-80967353D01*
X122200686Y-80967353D02*
X121941867Y-81933278D01*
X108418905Y-78309812D02*
X108677725Y-77343886D01*
X108677725Y-77343886D02*
X109643650Y-77602705D01*
X106020184Y-91125667D02*
X105054258Y-90866847D01*
X105054258Y-90866847D02*
X105313077Y-89900922D01*
%TO.C,SW12*%
X35010210Y-57364687D02*
X35010210Y-56364687D01*
X35010210Y-56364687D02*
X36010210Y-56364687D01*
X36010210Y-70364687D02*
X35010210Y-70364687D01*
X35010210Y-70364687D02*
X35010210Y-69364687D01*
X49010210Y-69364687D02*
X49010210Y-70364687D01*
X49010210Y-70364687D02*
X48010210Y-70364687D01*
X48010210Y-56364687D02*
X49010210Y-56364687D01*
X49010210Y-56364687D02*
X49010210Y-57364687D01*
%TO.C,SW11*%
X53040034Y-57364687D02*
X53040034Y-56364687D01*
X53040034Y-56364687D02*
X54040034Y-56364687D01*
X54040034Y-70364687D02*
X53040034Y-70364687D01*
X53040034Y-70364687D02*
X53040034Y-69364687D01*
X67040034Y-69364687D02*
X67040034Y-70364687D01*
X67040034Y-70364687D02*
X66040034Y-70364687D01*
X66040034Y-56364687D02*
X67040034Y-56364687D01*
X67040034Y-56364687D02*
X67040034Y-57364687D01*
%TO.C,SW10*%
X71057608Y-52933077D02*
X71057608Y-51933077D01*
X71057608Y-51933077D02*
X72057608Y-51933077D01*
X72057608Y-65933077D02*
X71057608Y-65933077D01*
X71057608Y-65933077D02*
X71057608Y-64933077D01*
X85057608Y-64933077D02*
X85057608Y-65933077D01*
X85057608Y-65933077D02*
X84057608Y-65933077D01*
X84057608Y-51933077D02*
X85057608Y-51933077D01*
X85057608Y-51933077D02*
X85057608Y-52933077D01*
%TO.C,SW9*%
X89056221Y-49862250D02*
X89056221Y-48862250D01*
X89056221Y-48862250D02*
X90056221Y-48862250D01*
X90056221Y-62862250D02*
X89056221Y-62862250D01*
X89056221Y-62862250D02*
X89056221Y-61862250D01*
X103056221Y-61862250D02*
X103056221Y-62862250D01*
X103056221Y-62862250D02*
X102056221Y-62862250D01*
X102056221Y-48862250D02*
X103056221Y-48862250D01*
X103056221Y-48862250D02*
X103056221Y-49862250D01*
%TO.C,SW8*%
X107073910Y-52918007D02*
X107073910Y-51918007D01*
X107073910Y-51918007D02*
X108073910Y-51918007D01*
X108073910Y-65918007D02*
X107073910Y-65918007D01*
X107073910Y-65918007D02*
X107073910Y-64918007D01*
X121073910Y-64918007D02*
X121073910Y-65918007D01*
X121073910Y-65918007D02*
X120073910Y-65918007D01*
X120073910Y-51918007D02*
X121073910Y-51918007D01*
X121073910Y-51918007D02*
X121073910Y-52918007D01*
%TO.C,SW7*%
X125076304Y-52918007D02*
X125076304Y-51918007D01*
X125076304Y-51918007D02*
X126076304Y-51918007D01*
X126076304Y-65918007D02*
X125076304Y-65918007D01*
X125076304Y-65918007D02*
X125076304Y-64918007D01*
X139076304Y-64918007D02*
X139076304Y-65918007D01*
X139076304Y-65918007D02*
X138076304Y-65918007D01*
X138076304Y-51918007D02*
X139076304Y-51918007D01*
X139076304Y-51918007D02*
X139076304Y-52918007D01*
%TO.C,SW6*%
X35010210Y-40392980D02*
X35010210Y-39392980D01*
X35010210Y-39392980D02*
X36010210Y-39392980D01*
X36010210Y-53392980D02*
X35010210Y-53392980D01*
X35010210Y-53392980D02*
X35010210Y-52392980D01*
X49010210Y-52392980D02*
X49010210Y-53392980D01*
X49010210Y-53392980D02*
X48010210Y-53392980D01*
X48010210Y-39392980D02*
X49010210Y-39392980D01*
X49010210Y-39392980D02*
X49010210Y-40392980D01*
%TO.C,SW5*%
X53040034Y-40392980D02*
X53040034Y-39392980D01*
X53040034Y-39392980D02*
X54040034Y-39392980D01*
X54040034Y-53392980D02*
X53040034Y-53392980D01*
X53040034Y-53392980D02*
X53040034Y-52392980D01*
X67040034Y-52392980D02*
X67040034Y-53392980D01*
X67040034Y-53392980D02*
X66040034Y-53392980D01*
X66040034Y-39392980D02*
X67040034Y-39392980D01*
X67040034Y-39392980D02*
X67040034Y-40392980D01*
%TO.C,SW4*%
X71057608Y-35961370D02*
X71057608Y-34961370D01*
X71057608Y-34961370D02*
X72057608Y-34961370D01*
X72057608Y-48961370D02*
X71057608Y-48961370D01*
X71057608Y-48961370D02*
X71057608Y-47961370D01*
X85057608Y-47961370D02*
X85057608Y-48961370D01*
X85057608Y-48961370D02*
X84057608Y-48961370D01*
X84057608Y-34961370D02*
X85057608Y-34961370D01*
X85057608Y-34961370D02*
X85057608Y-35961370D01*
%TO.C,SW3*%
X89056221Y-32890543D02*
X89056221Y-31890543D01*
X89056221Y-31890543D02*
X90056221Y-31890543D01*
X90056221Y-45890543D02*
X89056221Y-45890543D01*
X89056221Y-45890543D02*
X89056221Y-44890543D01*
X103056221Y-44890543D02*
X103056221Y-45890543D01*
X103056221Y-45890543D02*
X102056221Y-45890543D01*
X102056221Y-31890543D02*
X103056221Y-31890543D01*
X103056221Y-31890543D02*
X103056221Y-32890543D01*
%TO.C,SW2*%
X107077606Y-35916303D02*
X107077606Y-34916303D01*
X107077606Y-34916303D02*
X108077606Y-34916303D01*
X108077606Y-48916303D02*
X107077606Y-48916303D01*
X107077606Y-48916303D02*
X107077606Y-47916303D01*
X121077606Y-47916303D02*
X121077606Y-48916303D01*
X121077606Y-48916303D02*
X120077606Y-48916303D01*
X120077606Y-34916303D02*
X121077606Y-34916303D01*
X121077606Y-34916303D02*
X121077606Y-35916303D01*
%TO.C,SW1*%
X125080000Y-35916303D02*
X125080000Y-34916303D01*
X125080000Y-34916303D02*
X126080000Y-34916303D01*
X126080000Y-48916303D02*
X125080000Y-48916303D01*
X125080000Y-48916303D02*
X125080000Y-47916303D01*
X139080000Y-47916303D02*
X139080000Y-48916303D01*
X139080000Y-48916303D02*
X138080000Y-48916303D01*
X138080000Y-34916303D02*
X139080000Y-34916303D01*
X139080000Y-34916303D02*
X139080000Y-35916303D01*
%TO.C,SW13*%
X153657262Y-102854707D02*
X153398442Y-103820633D01*
X153398442Y-103820633D02*
X152432517Y-103561814D01*
X156055983Y-90038852D02*
X157021909Y-90297672D01*
X157021909Y-90297672D02*
X156763090Y-91263597D01*
X143240128Y-87640131D02*
X143498948Y-86674205D01*
X143498948Y-86674205D02*
X144464873Y-86933024D01*
X140841407Y-100455986D02*
X139875481Y-100197166D01*
X139875481Y-100197166D02*
X140134300Y-99231241D01*
%TO.C,SW14*%
X136252214Y-98191038D02*
X135993394Y-99156964D01*
X135993394Y-99156964D02*
X135027469Y-98898145D01*
X138650935Y-85375183D02*
X139616861Y-85634003D01*
X139616861Y-85634003D02*
X139358042Y-86599928D01*
X125835080Y-82976462D02*
X126093900Y-82010536D01*
X126093900Y-82010536D02*
X127059825Y-82269355D01*
X123436359Y-95792317D02*
X122470433Y-95533497D01*
X122470433Y-95533497D02*
X122729252Y-94567572D01*
%TO.C,U1*%
X146392810Y-43941904D02*
X146316619Y-43941904D01*
X146240429Y-43980000D01*
X146202333Y-44018095D01*
X146164238Y-44094285D01*
X146126143Y-44246666D01*
X146126143Y-44437142D01*
X146164238Y-44589523D01*
X146202333Y-44665714D01*
X146240429Y-44703809D01*
X146316619Y-44741904D01*
X146392810Y-44741904D01*
X146469000Y-44703809D01*
X146507095Y-44665714D01*
X146545190Y-44589523D01*
X146583286Y-44437142D01*
X146583286Y-44246666D01*
X146545190Y-44094285D01*
X146507095Y-44018095D01*
X146469000Y-43980000D01*
X146392810Y-43941904D01*
X145630905Y-43941904D02*
X145554714Y-43941904D01*
X145478524Y-43980000D01*
X145440429Y-44018095D01*
X145402333Y-44094285D01*
X145364238Y-44246666D01*
X145364238Y-44437142D01*
X145402333Y-44589523D01*
X145440429Y-44665714D01*
X145478524Y-44703809D01*
X145554714Y-44741904D01*
X145630905Y-44741904D01*
X145707095Y-44703809D01*
X145745190Y-44665714D01*
X145783286Y-44589523D01*
X145821381Y-44437142D01*
X145821381Y-44246666D01*
X145783286Y-44094285D01*
X145745190Y-44018095D01*
X145707095Y-43980000D01*
X145630905Y-43941904D01*
X144907095Y-44284761D02*
X144983286Y-44246666D01*
X145021381Y-44208571D01*
X145059476Y-44132380D01*
X145059476Y-44094285D01*
X145021381Y-44018095D01*
X144983286Y-43980000D01*
X144907095Y-43941904D01*
X144754714Y-43941904D01*
X144678524Y-43980000D01*
X144640429Y-44018095D01*
X144602333Y-44094285D01*
X144602333Y-44132380D01*
X144640429Y-44208571D01*
X144678524Y-44246666D01*
X144754714Y-44284761D01*
X144907095Y-44284761D01*
X144983286Y-44322857D01*
X145021381Y-44360952D01*
X145059476Y-44437142D01*
X145059476Y-44589523D01*
X145021381Y-44665714D01*
X144983286Y-44703809D01*
X144907095Y-44741904D01*
X144754714Y-44741904D01*
X144678524Y-44703809D01*
X144640429Y-44665714D01*
X144602333Y-44589523D01*
X144602333Y-44437142D01*
X144640429Y-44360952D01*
X144678524Y-44322857D01*
X144754714Y-44284761D01*
X146392810Y-54241904D02*
X146316619Y-54241904D01*
X146240429Y-54280000D01*
X146202333Y-54318095D01*
X146164238Y-54394285D01*
X146126143Y-54546666D01*
X146126143Y-54737142D01*
X146164238Y-54889523D01*
X146202333Y-54965714D01*
X146240429Y-55003809D01*
X146316619Y-55041904D01*
X146392810Y-55041904D01*
X146469000Y-55003809D01*
X146507095Y-54965714D01*
X146545190Y-54889523D01*
X146583286Y-54737142D01*
X146583286Y-54546666D01*
X146545190Y-54394285D01*
X146507095Y-54318095D01*
X146469000Y-54280000D01*
X146392810Y-54241904D01*
X145821381Y-54318095D02*
X145783286Y-54280000D01*
X145707095Y-54241904D01*
X145516619Y-54241904D01*
X145440429Y-54280000D01*
X145402333Y-54318095D01*
X145364238Y-54394285D01*
X145364238Y-54470476D01*
X145402333Y-54584761D01*
X145859476Y-55041904D01*
X145364238Y-55041904D01*
X144869000Y-54241904D02*
X144792810Y-54241904D01*
X144716619Y-54280000D01*
X144678524Y-54318095D01*
X144640429Y-54394285D01*
X144602333Y-54546666D01*
X144602333Y-54737142D01*
X144640429Y-54889523D01*
X144678524Y-54965714D01*
X144716619Y-55003809D01*
X144792810Y-55041904D01*
X144869000Y-55041904D01*
X144945190Y-55003809D01*
X144983286Y-54965714D01*
X145021381Y-54889523D01*
X145059476Y-54737142D01*
X145059476Y-54546666D01*
X145021381Y-54394285D01*
X144983286Y-54318095D01*
X144945190Y-54280000D01*
X144869000Y-54241904D01*
X146392810Y-51631904D02*
X146316619Y-51631904D01*
X146240429Y-51670000D01*
X146202333Y-51708095D01*
X146164238Y-51784285D01*
X146126143Y-51936666D01*
X146126143Y-52127142D01*
X146164238Y-52279523D01*
X146202333Y-52355714D01*
X146240429Y-52393809D01*
X146316619Y-52431904D01*
X146392810Y-52431904D01*
X146469000Y-52393809D01*
X146507095Y-52355714D01*
X146545190Y-52279523D01*
X146583286Y-52127142D01*
X146583286Y-51936666D01*
X146545190Y-51784285D01*
X146507095Y-51708095D01*
X146469000Y-51670000D01*
X146392810Y-51631904D01*
X145364238Y-52431904D02*
X145821381Y-52431904D01*
X145592810Y-52431904D02*
X145592810Y-51631904D01*
X145669000Y-51746190D01*
X145745190Y-51822380D01*
X145821381Y-51860476D01*
X145097571Y-51631904D02*
X144564238Y-51631904D01*
X144907095Y-52431904D01*
X146278523Y-49130000D02*
X146354714Y-49091904D01*
X146469000Y-49091904D01*
X146583285Y-49130000D01*
X146659476Y-49206190D01*
X146697571Y-49282380D01*
X146735666Y-49434761D01*
X146735666Y-49549047D01*
X146697571Y-49701428D01*
X146659476Y-49777619D01*
X146583285Y-49853809D01*
X146469000Y-49891904D01*
X146392809Y-49891904D01*
X146278523Y-49853809D01*
X146240428Y-49815714D01*
X146240428Y-49549047D01*
X146392809Y-49549047D01*
X145897571Y-49891904D02*
X145897571Y-49091904D01*
X145440428Y-49891904D01*
X145440428Y-49091904D01*
X145059476Y-49891904D02*
X145059476Y-49091904D01*
X144869000Y-49091904D01*
X144754714Y-49130000D01*
X144678523Y-49206190D01*
X144640428Y-49282380D01*
X144602333Y-49434761D01*
X144602333Y-49549047D01*
X144640428Y-49701428D01*
X144678523Y-49777619D01*
X144754714Y-49853809D01*
X144869000Y-49891904D01*
X145059476Y-49891904D01*
X146278523Y-46590000D02*
X146354714Y-46551904D01*
X146469000Y-46551904D01*
X146583285Y-46590000D01*
X146659476Y-46666190D01*
X146697571Y-46742380D01*
X146735666Y-46894761D01*
X146735666Y-47009047D01*
X146697571Y-47161428D01*
X146659476Y-47237619D01*
X146583285Y-47313809D01*
X146469000Y-47351904D01*
X146392809Y-47351904D01*
X146278523Y-47313809D01*
X146240428Y-47275714D01*
X146240428Y-47009047D01*
X146392809Y-47009047D01*
X145897571Y-47351904D02*
X145897571Y-46551904D01*
X145440428Y-47351904D01*
X145440428Y-46551904D01*
X145059476Y-47351904D02*
X145059476Y-46551904D01*
X144869000Y-46551904D01*
X144754714Y-46590000D01*
X144678523Y-46666190D01*
X144640428Y-46742380D01*
X144602333Y-46894761D01*
X144602333Y-47009047D01*
X144640428Y-47161428D01*
X144678523Y-47237619D01*
X144754714Y-47313809D01*
X144869000Y-47351904D01*
X145059476Y-47351904D01*
X146392810Y-56741904D02*
X146316619Y-56741904D01*
X146240429Y-56780000D01*
X146202333Y-56818095D01*
X146164238Y-56894285D01*
X146126143Y-57046666D01*
X146126143Y-57237142D01*
X146164238Y-57389523D01*
X146202333Y-57465714D01*
X146240429Y-57503809D01*
X146316619Y-57541904D01*
X146392810Y-57541904D01*
X146469000Y-57503809D01*
X146507095Y-57465714D01*
X146545190Y-57389523D01*
X146583286Y-57237142D01*
X146583286Y-57046666D01*
X146545190Y-56894285D01*
X146507095Y-56818095D01*
X146469000Y-56780000D01*
X146392810Y-56741904D01*
X145821381Y-56818095D02*
X145783286Y-56780000D01*
X145707095Y-56741904D01*
X145516619Y-56741904D01*
X145440429Y-56780000D01*
X145402333Y-56818095D01*
X145364238Y-56894285D01*
X145364238Y-56970476D01*
X145402333Y-57084761D01*
X145859476Y-57541904D01*
X145364238Y-57541904D01*
X145059476Y-56818095D02*
X145021381Y-56780000D01*
X144945190Y-56741904D01*
X144754714Y-56741904D01*
X144678524Y-56780000D01*
X144640429Y-56818095D01*
X144602333Y-56894285D01*
X144602333Y-56970476D01*
X144640429Y-57084761D01*
X145097571Y-57541904D01*
X144602333Y-57541904D01*
X146392810Y-59241904D02*
X146316619Y-59241904D01*
X146240429Y-59280000D01*
X146202333Y-59318095D01*
X146164238Y-59394285D01*
X146126143Y-59546666D01*
X146126143Y-59737142D01*
X146164238Y-59889523D01*
X146202333Y-59965714D01*
X146240429Y-60003809D01*
X146316619Y-60041904D01*
X146392810Y-60041904D01*
X146469000Y-60003809D01*
X146507095Y-59965714D01*
X146545190Y-59889523D01*
X146583286Y-59737142D01*
X146583286Y-59546666D01*
X146545190Y-59394285D01*
X146507095Y-59318095D01*
X146469000Y-59280000D01*
X146392810Y-59241904D01*
X145821381Y-59318095D02*
X145783286Y-59280000D01*
X145707095Y-59241904D01*
X145516619Y-59241904D01*
X145440429Y-59280000D01*
X145402333Y-59318095D01*
X145364238Y-59394285D01*
X145364238Y-59470476D01*
X145402333Y-59584761D01*
X145859476Y-60041904D01*
X145364238Y-60041904D01*
X144678524Y-59508571D02*
X144678524Y-60041904D01*
X144869000Y-59203809D02*
X145059476Y-59775238D01*
X144564238Y-59775238D01*
X146126143Y-62591904D02*
X146583286Y-62591904D01*
X146354714Y-62591904D02*
X146354714Y-61791904D01*
X146430905Y-61906190D01*
X146507095Y-61982380D01*
X146583286Y-62020476D01*
X145630905Y-61791904D02*
X145554714Y-61791904D01*
X145478524Y-61830000D01*
X145440429Y-61868095D01*
X145402333Y-61944285D01*
X145364238Y-62096666D01*
X145364238Y-62287142D01*
X145402333Y-62439523D01*
X145440429Y-62515714D01*
X145478524Y-62553809D01*
X145554714Y-62591904D01*
X145630905Y-62591904D01*
X145707095Y-62553809D01*
X145745190Y-62515714D01*
X145783286Y-62439523D01*
X145821381Y-62287142D01*
X145821381Y-62096666D01*
X145783286Y-61944285D01*
X145745190Y-61868095D01*
X145707095Y-61830000D01*
X145630905Y-61791904D01*
X144869000Y-61791904D02*
X144792810Y-61791904D01*
X144716619Y-61830000D01*
X144678524Y-61868095D01*
X144640429Y-61944285D01*
X144602333Y-62096666D01*
X144602333Y-62287142D01*
X144640429Y-62439523D01*
X144678524Y-62515714D01*
X144716619Y-62553809D01*
X144792810Y-62591904D01*
X144869000Y-62591904D01*
X144945190Y-62553809D01*
X144983286Y-62515714D01*
X145021381Y-62439523D01*
X145059476Y-62287142D01*
X145059476Y-62096666D01*
X145021381Y-61944285D01*
X144983286Y-61868095D01*
X144945190Y-61830000D01*
X144869000Y-61791904D01*
X146126143Y-67671904D02*
X146583286Y-67671904D01*
X146354714Y-67671904D02*
X146354714Y-66871904D01*
X146430905Y-66986190D01*
X146507095Y-67062380D01*
X146583286Y-67100476D01*
X145630905Y-66871904D02*
X145554714Y-66871904D01*
X145478524Y-66910000D01*
X145440429Y-66948095D01*
X145402333Y-67024285D01*
X145364238Y-67176666D01*
X145364238Y-67367142D01*
X145402333Y-67519523D01*
X145440429Y-67595714D01*
X145478524Y-67633809D01*
X145554714Y-67671904D01*
X145630905Y-67671904D01*
X145707095Y-67633809D01*
X145745190Y-67595714D01*
X145783286Y-67519523D01*
X145821381Y-67367142D01*
X145821381Y-67176666D01*
X145783286Y-67024285D01*
X145745190Y-66948095D01*
X145707095Y-66910000D01*
X145630905Y-66871904D01*
X144678524Y-67138571D02*
X144678524Y-67671904D01*
X144869000Y-66833809D02*
X145059476Y-67405238D01*
X144564238Y-67405238D01*
X157200524Y-65131904D02*
X157657667Y-65131904D01*
X157429095Y-65131904D02*
X157429095Y-64331904D01*
X157505286Y-64446190D01*
X157581476Y-64522380D01*
X157657667Y-64560476D01*
X156438619Y-65131904D02*
X156895762Y-65131904D01*
X156667191Y-65131904D02*
X156667191Y-64331904D01*
X156743381Y-64446190D01*
X156819571Y-64522380D01*
X156895762Y-64560476D01*
X155676714Y-65131904D02*
X156133857Y-65131904D01*
X155905286Y-65131904D02*
X155905286Y-64331904D01*
X155981476Y-64446190D01*
X156057667Y-64522380D01*
X156133857Y-64560476D01*
X157200524Y-62591904D02*
X157657667Y-62591904D01*
X157429095Y-62591904D02*
X157429095Y-61791904D01*
X157505286Y-61906190D01*
X157581476Y-61982380D01*
X157657667Y-62020476D01*
X156438619Y-62591904D02*
X156895762Y-62591904D01*
X156667191Y-62591904D02*
X156667191Y-61791904D01*
X156743381Y-61906190D01*
X156819571Y-61982380D01*
X156895762Y-62020476D01*
X156171952Y-61791904D02*
X155676714Y-61791904D01*
X155943381Y-62096666D01*
X155829095Y-62096666D01*
X155752905Y-62134761D01*
X155714810Y-62172857D01*
X155676714Y-62249047D01*
X155676714Y-62439523D01*
X155714810Y-62515714D01*
X155752905Y-62553809D01*
X155829095Y-62591904D01*
X156057667Y-62591904D01*
X156133857Y-62553809D01*
X156171952Y-62515714D01*
X157467191Y-51631904D02*
X157391000Y-51631904D01*
X157314810Y-51670000D01*
X157276714Y-51708095D01*
X157238619Y-51784285D01*
X157200524Y-51936666D01*
X157200524Y-52127142D01*
X157238619Y-52279523D01*
X157276714Y-52355714D01*
X157314810Y-52393809D01*
X157391000Y-52431904D01*
X157467191Y-52431904D01*
X157543381Y-52393809D01*
X157581476Y-52355714D01*
X157619571Y-52279523D01*
X157657667Y-52127142D01*
X157657667Y-51936666D01*
X157619571Y-51784285D01*
X157581476Y-51708095D01*
X157543381Y-51670000D01*
X157467191Y-51631904D01*
X156933857Y-51631904D02*
X156438619Y-51631904D01*
X156705286Y-51936666D01*
X156591000Y-51936666D01*
X156514810Y-51974761D01*
X156476714Y-52012857D01*
X156438619Y-52089047D01*
X156438619Y-52279523D01*
X156476714Y-52355714D01*
X156514810Y-52393809D01*
X156591000Y-52431904D01*
X156819571Y-52431904D01*
X156895762Y-52393809D01*
X156933857Y-52355714D01*
X155676714Y-52431904D02*
X156133857Y-52431904D01*
X155905286Y-52431904D02*
X155905286Y-51631904D01*
X155981476Y-51746190D01*
X156057667Y-51822380D01*
X156133857Y-51860476D01*
X157733857Y-49091904D02*
X157467191Y-49891904D01*
X157200524Y-49091904D01*
X156476714Y-49815714D02*
X156514810Y-49853809D01*
X156629095Y-49891904D01*
X156705286Y-49891904D01*
X156819571Y-49853809D01*
X156895762Y-49777619D01*
X156933857Y-49701428D01*
X156971952Y-49549047D01*
X156971952Y-49434761D01*
X156933857Y-49282380D01*
X156895762Y-49206190D01*
X156819571Y-49130000D01*
X156705286Y-49091904D01*
X156629095Y-49091904D01*
X156514810Y-49130000D01*
X156476714Y-49168095D01*
X155676714Y-49815714D02*
X155714810Y-49853809D01*
X155829095Y-49891904D01*
X155905286Y-49891904D01*
X156019571Y-49853809D01*
X156095762Y-49777619D01*
X156133857Y-49701428D01*
X156171952Y-49549047D01*
X156171952Y-49434761D01*
X156133857Y-49282380D01*
X156095762Y-49206190D01*
X156019571Y-49130000D01*
X155905286Y-49091904D01*
X155829095Y-49091904D01*
X155714810Y-49130000D01*
X155676714Y-49168095D01*
X157194190Y-44050000D02*
X157270381Y-44011904D01*
X157384667Y-44011904D01*
X157498952Y-44050000D01*
X157575143Y-44126190D01*
X157613238Y-44202380D01*
X157651333Y-44354761D01*
X157651333Y-44469047D01*
X157613238Y-44621428D01*
X157575143Y-44697619D01*
X157498952Y-44773809D01*
X157384667Y-44811904D01*
X157308476Y-44811904D01*
X157194190Y-44773809D01*
X157156095Y-44735714D01*
X157156095Y-44469047D01*
X157308476Y-44469047D01*
X156813238Y-44811904D02*
X156813238Y-44011904D01*
X156356095Y-44811904D01*
X156356095Y-44011904D01*
X155975143Y-44811904D02*
X155975143Y-44011904D01*
X155784667Y-44011904D01*
X155670381Y-44050000D01*
X155594190Y-44126190D01*
X155556095Y-44202380D01*
X155518000Y-44354761D01*
X155518000Y-44469047D01*
X155556095Y-44621428D01*
X155594190Y-44697619D01*
X155670381Y-44773809D01*
X155784667Y-44811904D01*
X155975143Y-44811904D01*
X157156095Y-42271904D02*
X157422762Y-41890952D01*
X157613238Y-42271904D02*
X157613238Y-41471904D01*
X157308476Y-41471904D01*
X157232286Y-41510000D01*
X157194191Y-41548095D01*
X157156095Y-41624285D01*
X157156095Y-41738571D01*
X157194191Y-41814761D01*
X157232286Y-41852857D01*
X157308476Y-41890952D01*
X157613238Y-41890952D01*
X156851334Y-42043333D02*
X156470381Y-42043333D01*
X156927524Y-42271904D02*
X156660857Y-41471904D01*
X156394191Y-42271904D01*
X156203715Y-41471904D02*
X156013238Y-42271904D01*
X155860857Y-41700476D01*
X155708476Y-42271904D01*
X155518000Y-41471904D01*
X157467191Y-54171904D02*
X157391000Y-54171904D01*
X157314810Y-54210000D01*
X157276714Y-54248095D01*
X157238619Y-54324285D01*
X157200524Y-54476666D01*
X157200524Y-54667142D01*
X157238619Y-54819523D01*
X157276714Y-54895714D01*
X157314810Y-54933809D01*
X157391000Y-54971904D01*
X157467191Y-54971904D01*
X157543381Y-54933809D01*
X157581476Y-54895714D01*
X157619571Y-54819523D01*
X157657667Y-54667142D01*
X157657667Y-54476666D01*
X157619571Y-54324285D01*
X157581476Y-54248095D01*
X157543381Y-54210000D01*
X157467191Y-54171904D01*
X156895762Y-54248095D02*
X156857667Y-54210000D01*
X156781476Y-54171904D01*
X156591000Y-54171904D01*
X156514810Y-54210000D01*
X156476714Y-54248095D01*
X156438619Y-54324285D01*
X156438619Y-54400476D01*
X156476714Y-54514761D01*
X156933857Y-54971904D01*
X156438619Y-54971904D01*
X156057667Y-54971904D02*
X155905286Y-54971904D01*
X155829095Y-54933809D01*
X155791000Y-54895714D01*
X155714810Y-54781428D01*
X155676714Y-54629047D01*
X155676714Y-54324285D01*
X155714810Y-54248095D01*
X155752905Y-54210000D01*
X155829095Y-54171904D01*
X155981476Y-54171904D01*
X156057667Y-54210000D01*
X156095762Y-54248095D01*
X156133857Y-54324285D01*
X156133857Y-54514761D01*
X156095762Y-54590952D01*
X156057667Y-54629047D01*
X155981476Y-54667142D01*
X155829095Y-54667142D01*
X155752905Y-54629047D01*
X155714810Y-54590952D01*
X155676714Y-54514761D01*
X157467191Y-56711904D02*
X157391000Y-56711904D01*
X157314810Y-56750000D01*
X157276714Y-56788095D01*
X157238619Y-56864285D01*
X157200524Y-57016666D01*
X157200524Y-57207142D01*
X157238619Y-57359523D01*
X157276714Y-57435714D01*
X157314810Y-57473809D01*
X157391000Y-57511904D01*
X157467191Y-57511904D01*
X157543381Y-57473809D01*
X157581476Y-57435714D01*
X157619571Y-57359523D01*
X157657667Y-57207142D01*
X157657667Y-57016666D01*
X157619571Y-56864285D01*
X157581476Y-56788095D01*
X157543381Y-56750000D01*
X157467191Y-56711904D01*
X156705286Y-56711904D02*
X156629095Y-56711904D01*
X156552905Y-56750000D01*
X156514810Y-56788095D01*
X156476714Y-56864285D01*
X156438619Y-57016666D01*
X156438619Y-57207142D01*
X156476714Y-57359523D01*
X156514810Y-57435714D01*
X156552905Y-57473809D01*
X156629095Y-57511904D01*
X156705286Y-57511904D01*
X156781476Y-57473809D01*
X156819571Y-57435714D01*
X156857667Y-57359523D01*
X156895762Y-57207142D01*
X156895762Y-57016666D01*
X156857667Y-56864285D01*
X156819571Y-56788095D01*
X156781476Y-56750000D01*
X156705286Y-56711904D01*
X156133857Y-56788095D02*
X156095762Y-56750000D01*
X156019571Y-56711904D01*
X155829095Y-56711904D01*
X155752905Y-56750000D01*
X155714810Y-56788095D01*
X155676714Y-56864285D01*
X155676714Y-56940476D01*
X155714810Y-57054761D01*
X156171952Y-57511904D01*
X155676714Y-57511904D01*
X157200524Y-60051904D02*
X157657667Y-60051904D01*
X157429095Y-60051904D02*
X157429095Y-59251904D01*
X157505286Y-59366190D01*
X157581476Y-59442380D01*
X157657667Y-59480476D01*
X156438619Y-60051904D02*
X156895762Y-60051904D01*
X156667191Y-60051904D02*
X156667191Y-59251904D01*
X156743381Y-59366190D01*
X156819571Y-59442380D01*
X156895762Y-59480476D01*
X155714810Y-59251904D02*
X156095762Y-59251904D01*
X156133857Y-59632857D01*
X156095762Y-59594761D01*
X156019571Y-59556666D01*
X155829095Y-59556666D01*
X155752905Y-59594761D01*
X155714810Y-59632857D01*
X155676714Y-59709047D01*
X155676714Y-59899523D01*
X155714810Y-59975714D01*
X155752905Y-60013809D01*
X155829095Y-60051904D01*
X156019571Y-60051904D01*
X156095762Y-60013809D01*
X156133857Y-59975714D01*
X157467191Y-66871904D02*
X157391000Y-66871904D01*
X157314810Y-66910000D01*
X157276714Y-66948095D01*
X157238619Y-67024285D01*
X157200524Y-67176666D01*
X157200524Y-67367142D01*
X157238619Y-67519523D01*
X157276714Y-67595714D01*
X157314810Y-67633809D01*
X157391000Y-67671904D01*
X157467191Y-67671904D01*
X157543381Y-67633809D01*
X157581476Y-67595714D01*
X157619571Y-67519523D01*
X157657667Y-67367142D01*
X157657667Y-67176666D01*
X157619571Y-67024285D01*
X157581476Y-66948095D01*
X157543381Y-66910000D01*
X157467191Y-66871904D01*
X156438619Y-67671904D02*
X156895762Y-67671904D01*
X156667191Y-67671904D02*
X156667191Y-66871904D01*
X156743381Y-66986190D01*
X156819571Y-67062380D01*
X156895762Y-67100476D01*
X155943381Y-66871904D02*
X155867191Y-66871904D01*
X155791000Y-66910000D01*
X155752905Y-66948095D01*
X155714810Y-67024285D01*
X155676714Y-67176666D01*
X155676714Y-67367142D01*
X155714810Y-67519523D01*
X155752905Y-67595714D01*
X155791000Y-67633809D01*
X155867191Y-67671904D01*
X155943381Y-67671904D01*
X156019571Y-67633809D01*
X156057667Y-67595714D01*
X156095762Y-67519523D01*
X156133857Y-67367142D01*
X156133857Y-67176666D01*
X156095762Y-67024285D01*
X156057667Y-66948095D01*
X156019571Y-66910000D01*
X155943381Y-66871904D01*
X146392810Y-41471904D02*
X146316619Y-41471904D01*
X146240429Y-41510000D01*
X146202333Y-41548095D01*
X146164238Y-41624285D01*
X146126143Y-41776666D01*
X146126143Y-41967142D01*
X146164238Y-42119523D01*
X146202333Y-42195714D01*
X146240429Y-42233809D01*
X146316619Y-42271904D01*
X146392810Y-42271904D01*
X146469000Y-42233809D01*
X146507095Y-42195714D01*
X146545190Y-42119523D01*
X146583286Y-41967142D01*
X146583286Y-41776666D01*
X146545190Y-41624285D01*
X146507095Y-41548095D01*
X146469000Y-41510000D01*
X146392810Y-41471904D01*
X145630905Y-41471904D02*
X145554714Y-41471904D01*
X145478524Y-41510000D01*
X145440429Y-41548095D01*
X145402333Y-41624285D01*
X145364238Y-41776666D01*
X145364238Y-41967142D01*
X145402333Y-42119523D01*
X145440429Y-42195714D01*
X145478524Y-42233809D01*
X145554714Y-42271904D01*
X145630905Y-42271904D01*
X145707095Y-42233809D01*
X145745190Y-42195714D01*
X145783286Y-42119523D01*
X145821381Y-41967142D01*
X145821381Y-41776666D01*
X145783286Y-41624285D01*
X145745190Y-41548095D01*
X145707095Y-41510000D01*
X145630905Y-41471904D01*
X144678524Y-41471904D02*
X144830905Y-41471904D01*
X144907095Y-41510000D01*
X144945190Y-41548095D01*
X145021381Y-41662380D01*
X145059476Y-41814761D01*
X145059476Y-42119523D01*
X145021381Y-42195714D01*
X144983286Y-42233809D01*
X144907095Y-42271904D01*
X144754714Y-42271904D01*
X144678524Y-42233809D01*
X144640429Y-42195714D01*
X144602333Y-42119523D01*
X144602333Y-41929047D01*
X144640429Y-41852857D01*
X144678524Y-41814761D01*
X144754714Y-41776666D01*
X144907095Y-41776666D01*
X144983286Y-41814761D01*
X145021381Y-41852857D01*
X145059476Y-41929047D01*
X157156095Y-47351904D02*
X157422761Y-46970952D01*
X157613238Y-47351904D02*
X157613238Y-46551904D01*
X157308476Y-46551904D01*
X157232285Y-46590000D01*
X157194190Y-46628095D01*
X157156095Y-46704285D01*
X157156095Y-46818571D01*
X157194190Y-46894761D01*
X157232285Y-46932857D01*
X157308476Y-46970952D01*
X157613238Y-46970952D01*
X156851333Y-47313809D02*
X156737047Y-47351904D01*
X156546571Y-47351904D01*
X156470380Y-47313809D01*
X156432285Y-47275714D01*
X156394190Y-47199523D01*
X156394190Y-47123333D01*
X156432285Y-47047142D01*
X156470380Y-47009047D01*
X156546571Y-46970952D01*
X156698952Y-46932857D01*
X156775142Y-46894761D01*
X156813238Y-46856666D01*
X156851333Y-46780476D01*
X156851333Y-46704285D01*
X156813238Y-46628095D01*
X156775142Y-46590000D01*
X156698952Y-46551904D01*
X156508476Y-46551904D01*
X156394190Y-46590000D01*
X156165619Y-46551904D02*
X155708476Y-46551904D01*
X155937047Y-47351904D02*
X155937047Y-46551904D01*
%TO.C,Reset2*%
X161452380Y-74485714D02*
X160976190Y-74152380D01*
X161452380Y-73914285D02*
X160452380Y-73914285D01*
X160452380Y-74295238D01*
X160500000Y-74390476D01*
X160547619Y-74438095D01*
X160642857Y-74485714D01*
X160785714Y-74485714D01*
X160880952Y-74438095D01*
X160928571Y-74390476D01*
X160976190Y-74295238D01*
X160976190Y-73914285D01*
X161404761Y-75295238D02*
X161452380Y-75200000D01*
X161452380Y-75009523D01*
X161404761Y-74914285D01*
X161309523Y-74866666D01*
X160928571Y-74866666D01*
X160833333Y-74914285D01*
X160785714Y-75009523D01*
X160785714Y-75200000D01*
X160833333Y-75295238D01*
X160928571Y-75342857D01*
X161023809Y-75342857D01*
X161119047Y-74866666D01*
X161404761Y-75723809D02*
X161452380Y-75819047D01*
X161452380Y-76009523D01*
X161404761Y-76104761D01*
X161309523Y-76152380D01*
X161261904Y-76152380D01*
X161166666Y-76104761D01*
X161119047Y-76009523D01*
X161119047Y-75866666D01*
X161071428Y-75771428D01*
X160976190Y-75723809D01*
X160928571Y-75723809D01*
X160833333Y-75771428D01*
X160785714Y-75866666D01*
X160785714Y-76009523D01*
X160833333Y-76104761D01*
X161404761Y-76961904D02*
X161452380Y-76866666D01*
X161452380Y-76676190D01*
X161404761Y-76580952D01*
X161309523Y-76533333D01*
X160928571Y-76533333D01*
X160833333Y-76580952D01*
X160785714Y-76676190D01*
X160785714Y-76866666D01*
X160833333Y-76961904D01*
X160928571Y-77009523D01*
X161023809Y-77009523D01*
X161119047Y-76533333D01*
X160785714Y-77295238D02*
X160785714Y-77676190D01*
X160452380Y-77438095D02*
X161309523Y-77438095D01*
X161404761Y-77485714D01*
X161452380Y-77580952D01*
X161452380Y-77676190D01*
X160547619Y-77961904D02*
X160500000Y-78009523D01*
X160452380Y-78104761D01*
X160452380Y-78342857D01*
X160500000Y-78438095D01*
X160547619Y-78485714D01*
X160642857Y-78533333D01*
X160738095Y-78533333D01*
X160880952Y-78485714D01*
X161452380Y-77914285D01*
X161452380Y-78533333D01*
%TO.C,BT2*%
X151915714Y-84468571D02*
X151772857Y-84516190D01*
X151725238Y-84563809D01*
X151677619Y-84659047D01*
X151677619Y-84801904D01*
X151725238Y-84897142D01*
X151772857Y-84944761D01*
X151868095Y-84992380D01*
X152249047Y-84992380D01*
X152249047Y-83992380D01*
X151915714Y-83992380D01*
X151820476Y-84040000D01*
X151772857Y-84087619D01*
X151725238Y-84182857D01*
X151725238Y-84278095D01*
X151772857Y-84373333D01*
X151820476Y-84420952D01*
X151915714Y-84468571D01*
X152249047Y-84468571D01*
X151391904Y-83992380D02*
X150820476Y-83992380D01*
X151106190Y-84992380D02*
X151106190Y-83992380D01*
X150534761Y-84087619D02*
X150487142Y-84040000D01*
X150391904Y-83992380D01*
X150153809Y-83992380D01*
X150058571Y-84040000D01*
X150010952Y-84087619D01*
X149963333Y-84182857D01*
X149963333Y-84278095D01*
X150010952Y-84420952D01*
X150582380Y-84992380D01*
X149963333Y-84992380D01*
%TO.C,SW15*%
X118367233Y-93610757D02*
X118216919Y-93619779D01*
X117986937Y-93558155D01*
X117907269Y-93487510D01*
X117873597Y-93429188D01*
X117852250Y-93324871D01*
X117876899Y-93232878D01*
X117947545Y-93153210D01*
X118005866Y-93119538D01*
X118110184Y-93098191D01*
X118306494Y-93101493D01*
X118410812Y-93080146D01*
X118469133Y-93046474D01*
X118539779Y-92966806D01*
X118564429Y-92874813D01*
X118543082Y-92770496D01*
X118509410Y-92712174D01*
X118429742Y-92641528D01*
X118199759Y-92579905D01*
X118049445Y-92588927D01*
X117739795Y-92456658D02*
X117250993Y-93360960D01*
X117251878Y-92621714D01*
X116883022Y-93262362D01*
X116911858Y-92234813D01*
X115779106Y-92966569D02*
X116331064Y-93114466D01*
X116055085Y-93040517D02*
X116313904Y-92074592D01*
X116368923Y-92237230D01*
X116436266Y-92353873D01*
X116515935Y-92424519D01*
X115163992Y-91766474D02*
X115623957Y-91889721D01*
X115546706Y-92362010D01*
X115513035Y-92303689D01*
X115433366Y-92233043D01*
X115203384Y-92171420D01*
X115099066Y-92192767D01*
X115040745Y-92226438D01*
X114970099Y-92306107D01*
X114908476Y-92536089D01*
X114929823Y-92640407D01*
X114963495Y-92698728D01*
X115043163Y-92769374D01*
X115273145Y-92830997D01*
X115377463Y-92809650D01*
X115435784Y-92775978D01*
%TO.C,SW12*%
X39059733Y-57969448D02*
X38916876Y-58017067D01*
X38678781Y-58017067D01*
X38583543Y-57969448D01*
X38535924Y-57921829D01*
X38488305Y-57826591D01*
X38488305Y-57731353D01*
X38535924Y-57636115D01*
X38583543Y-57588496D01*
X38678781Y-57540877D01*
X38869257Y-57493258D01*
X38964495Y-57445639D01*
X39012114Y-57398020D01*
X39059733Y-57302782D01*
X39059733Y-57207544D01*
X39012114Y-57112306D01*
X38964495Y-57064687D01*
X38869257Y-57017067D01*
X38631162Y-57017067D01*
X38488305Y-57064687D01*
X38154971Y-57017067D02*
X37916876Y-58017067D01*
X37726400Y-57302782D01*
X37535924Y-58017067D01*
X37297829Y-57017067D01*
X36393067Y-58017067D02*
X36964495Y-58017067D01*
X36678781Y-58017067D02*
X36678781Y-57017067D01*
X36774019Y-57159925D01*
X36869257Y-57255163D01*
X36964495Y-57302782D01*
X36012114Y-57112306D02*
X35964495Y-57064687D01*
X35869257Y-57017067D01*
X35631162Y-57017067D01*
X35535924Y-57064687D01*
X35488305Y-57112306D01*
X35440686Y-57207544D01*
X35440686Y-57302782D01*
X35488305Y-57445639D01*
X36059733Y-58017067D01*
X35440686Y-58017067D01*
%TO.C,SW11*%
X57089557Y-57969448D02*
X56946700Y-58017067D01*
X56708605Y-58017067D01*
X56613367Y-57969448D01*
X56565748Y-57921829D01*
X56518129Y-57826591D01*
X56518129Y-57731353D01*
X56565748Y-57636115D01*
X56613367Y-57588496D01*
X56708605Y-57540877D01*
X56899081Y-57493258D01*
X56994319Y-57445639D01*
X57041938Y-57398020D01*
X57089557Y-57302782D01*
X57089557Y-57207544D01*
X57041938Y-57112306D01*
X56994319Y-57064687D01*
X56899081Y-57017067D01*
X56660986Y-57017067D01*
X56518129Y-57064687D01*
X56184795Y-57017067D02*
X55946700Y-58017067D01*
X55756224Y-57302782D01*
X55565748Y-58017067D01*
X55327653Y-57017067D01*
X54422891Y-58017067D02*
X54994319Y-58017067D01*
X54708605Y-58017067D02*
X54708605Y-57017067D01*
X54803843Y-57159925D01*
X54899081Y-57255163D01*
X54994319Y-57302782D01*
X53470510Y-58017067D02*
X54041938Y-58017067D01*
X53756224Y-58017067D02*
X53756224Y-57017067D01*
X53851462Y-57159925D01*
X53946700Y-57255163D01*
X54041938Y-57302782D01*
%TO.C,SW10*%
X75107131Y-53537838D02*
X74964274Y-53585457D01*
X74726179Y-53585457D01*
X74630941Y-53537838D01*
X74583322Y-53490219D01*
X74535703Y-53394981D01*
X74535703Y-53299743D01*
X74583322Y-53204505D01*
X74630941Y-53156886D01*
X74726179Y-53109267D01*
X74916655Y-53061648D01*
X75011893Y-53014029D01*
X75059512Y-52966410D01*
X75107131Y-52871172D01*
X75107131Y-52775934D01*
X75059512Y-52680696D01*
X75011893Y-52633077D01*
X74916655Y-52585457D01*
X74678560Y-52585457D01*
X74535703Y-52633077D01*
X74202369Y-52585457D02*
X73964274Y-53585457D01*
X73773798Y-52871172D01*
X73583322Y-53585457D01*
X73345227Y-52585457D01*
X72440465Y-53585457D02*
X73011893Y-53585457D01*
X72726179Y-53585457D02*
X72726179Y-52585457D01*
X72821417Y-52728315D01*
X72916655Y-52823553D01*
X73011893Y-52871172D01*
X71821417Y-52585457D02*
X71726179Y-52585457D01*
X71630941Y-52633077D01*
X71583322Y-52680696D01*
X71535703Y-52775934D01*
X71488084Y-52966410D01*
X71488084Y-53204505D01*
X71535703Y-53394981D01*
X71583322Y-53490219D01*
X71630941Y-53537838D01*
X71726179Y-53585457D01*
X71821417Y-53585457D01*
X71916655Y-53537838D01*
X71964274Y-53490219D01*
X72011893Y-53394981D01*
X72059512Y-53204505D01*
X72059512Y-52966410D01*
X72011893Y-52775934D01*
X71964274Y-52680696D01*
X71916655Y-52633077D01*
X71821417Y-52585457D01*
%TO.C,SW9*%
X92629554Y-50467011D02*
X92486697Y-50514630D01*
X92248601Y-50514630D01*
X92153363Y-50467011D01*
X92105744Y-50419392D01*
X92058125Y-50324154D01*
X92058125Y-50228916D01*
X92105744Y-50133678D01*
X92153363Y-50086059D01*
X92248601Y-50038440D01*
X92439078Y-49990821D01*
X92534316Y-49943202D01*
X92581935Y-49895583D01*
X92629554Y-49800345D01*
X92629554Y-49705107D01*
X92581935Y-49609869D01*
X92534316Y-49562250D01*
X92439078Y-49514630D01*
X92200982Y-49514630D01*
X92058125Y-49562250D01*
X91724792Y-49514630D02*
X91486697Y-50514630D01*
X91296221Y-49800345D01*
X91105744Y-50514630D01*
X90867649Y-49514630D01*
X90439078Y-50514630D02*
X90248601Y-50514630D01*
X90153363Y-50467011D01*
X90105744Y-50419392D01*
X90010506Y-50276535D01*
X89962887Y-50086059D01*
X89962887Y-49705107D01*
X90010506Y-49609869D01*
X90058125Y-49562250D01*
X90153363Y-49514630D01*
X90343840Y-49514630D01*
X90439078Y-49562250D01*
X90486697Y-49609869D01*
X90534316Y-49705107D01*
X90534316Y-49943202D01*
X90486697Y-50038440D01*
X90439078Y-50086059D01*
X90343840Y-50133678D01*
X90153363Y-50133678D01*
X90058125Y-50086059D01*
X90010506Y-50038440D01*
X89962887Y-49943202D01*
%TO.C,SW8*%
X110647243Y-53522768D02*
X110504386Y-53570387D01*
X110266290Y-53570387D01*
X110171052Y-53522768D01*
X110123433Y-53475149D01*
X110075814Y-53379911D01*
X110075814Y-53284673D01*
X110123433Y-53189435D01*
X110171052Y-53141816D01*
X110266290Y-53094197D01*
X110456767Y-53046578D01*
X110552005Y-52998959D01*
X110599624Y-52951340D01*
X110647243Y-52856102D01*
X110647243Y-52760864D01*
X110599624Y-52665626D01*
X110552005Y-52618007D01*
X110456767Y-52570387D01*
X110218671Y-52570387D01*
X110075814Y-52618007D01*
X109742481Y-52570387D02*
X109504386Y-53570387D01*
X109313910Y-52856102D01*
X109123433Y-53570387D01*
X108885338Y-52570387D01*
X108361529Y-52998959D02*
X108456767Y-52951340D01*
X108504386Y-52903721D01*
X108552005Y-52808483D01*
X108552005Y-52760864D01*
X108504386Y-52665626D01*
X108456767Y-52618007D01*
X108361529Y-52570387D01*
X108171052Y-52570387D01*
X108075814Y-52618007D01*
X108028195Y-52665626D01*
X107980576Y-52760864D01*
X107980576Y-52808483D01*
X108028195Y-52903721D01*
X108075814Y-52951340D01*
X108171052Y-52998959D01*
X108361529Y-52998959D01*
X108456767Y-53046578D01*
X108504386Y-53094197D01*
X108552005Y-53189435D01*
X108552005Y-53379911D01*
X108504386Y-53475149D01*
X108456767Y-53522768D01*
X108361529Y-53570387D01*
X108171052Y-53570387D01*
X108075814Y-53522768D01*
X108028195Y-53475149D01*
X107980576Y-53379911D01*
X107980576Y-53189435D01*
X108028195Y-53094197D01*
X108075814Y-53046578D01*
X108171052Y-52998959D01*
%TO.C,SW7*%
X128649637Y-53522768D02*
X128506780Y-53570387D01*
X128268684Y-53570387D01*
X128173446Y-53522768D01*
X128125827Y-53475149D01*
X128078208Y-53379911D01*
X128078208Y-53284673D01*
X128125827Y-53189435D01*
X128173446Y-53141816D01*
X128268684Y-53094197D01*
X128459161Y-53046578D01*
X128554399Y-52998959D01*
X128602018Y-52951340D01*
X128649637Y-52856102D01*
X128649637Y-52760864D01*
X128602018Y-52665626D01*
X128554399Y-52618007D01*
X128459161Y-52570387D01*
X128221065Y-52570387D01*
X128078208Y-52618007D01*
X127744875Y-52570387D02*
X127506780Y-53570387D01*
X127316304Y-52856102D01*
X127125827Y-53570387D01*
X126887732Y-52570387D01*
X126602018Y-52570387D02*
X125935351Y-52570387D01*
X126363923Y-53570387D01*
%TO.C,SW6*%
X38583543Y-40997741D02*
X38440686Y-41045360D01*
X38202590Y-41045360D01*
X38107352Y-40997741D01*
X38059733Y-40950122D01*
X38012114Y-40854884D01*
X38012114Y-40759646D01*
X38059733Y-40664408D01*
X38107352Y-40616789D01*
X38202590Y-40569170D01*
X38393067Y-40521551D01*
X38488305Y-40473932D01*
X38535924Y-40426313D01*
X38583543Y-40331075D01*
X38583543Y-40235837D01*
X38535924Y-40140599D01*
X38488305Y-40092980D01*
X38393067Y-40045360D01*
X38154971Y-40045360D01*
X38012114Y-40092980D01*
X37678781Y-40045360D02*
X37440686Y-41045360D01*
X37250210Y-40331075D01*
X37059733Y-41045360D01*
X36821638Y-40045360D01*
X36012114Y-40045360D02*
X36202590Y-40045360D01*
X36297829Y-40092980D01*
X36345448Y-40140599D01*
X36440686Y-40283456D01*
X36488305Y-40473932D01*
X36488305Y-40854884D01*
X36440686Y-40950122D01*
X36393067Y-40997741D01*
X36297829Y-41045360D01*
X36107352Y-41045360D01*
X36012114Y-40997741D01*
X35964495Y-40950122D01*
X35916876Y-40854884D01*
X35916876Y-40616789D01*
X35964495Y-40521551D01*
X36012114Y-40473932D01*
X36107352Y-40426313D01*
X36297829Y-40426313D01*
X36393067Y-40473932D01*
X36440686Y-40521551D01*
X36488305Y-40616789D01*
%TO.C,SW5*%
X56613367Y-40997741D02*
X56470510Y-41045360D01*
X56232414Y-41045360D01*
X56137176Y-40997741D01*
X56089557Y-40950122D01*
X56041938Y-40854884D01*
X56041938Y-40759646D01*
X56089557Y-40664408D01*
X56137176Y-40616789D01*
X56232414Y-40569170D01*
X56422891Y-40521551D01*
X56518129Y-40473932D01*
X56565748Y-40426313D01*
X56613367Y-40331075D01*
X56613367Y-40235837D01*
X56565748Y-40140599D01*
X56518129Y-40092980D01*
X56422891Y-40045360D01*
X56184795Y-40045360D01*
X56041938Y-40092980D01*
X55708605Y-40045360D02*
X55470510Y-41045360D01*
X55280034Y-40331075D01*
X55089557Y-41045360D01*
X54851462Y-40045360D01*
X53994319Y-40045360D02*
X54470510Y-40045360D01*
X54518129Y-40521551D01*
X54470510Y-40473932D01*
X54375272Y-40426313D01*
X54137176Y-40426313D01*
X54041938Y-40473932D01*
X53994319Y-40521551D01*
X53946700Y-40616789D01*
X53946700Y-40854884D01*
X53994319Y-40950122D01*
X54041938Y-40997741D01*
X54137176Y-41045360D01*
X54375272Y-41045360D01*
X54470510Y-40997741D01*
X54518129Y-40950122D01*
%TO.C,SW4*%
X74630941Y-36566131D02*
X74488084Y-36613750D01*
X74249988Y-36613750D01*
X74154750Y-36566131D01*
X74107131Y-36518512D01*
X74059512Y-36423274D01*
X74059512Y-36328036D01*
X74107131Y-36232798D01*
X74154750Y-36185179D01*
X74249988Y-36137560D01*
X74440465Y-36089941D01*
X74535703Y-36042322D01*
X74583322Y-35994703D01*
X74630941Y-35899465D01*
X74630941Y-35804227D01*
X74583322Y-35708989D01*
X74535703Y-35661370D01*
X74440465Y-35613750D01*
X74202369Y-35613750D01*
X74059512Y-35661370D01*
X73726179Y-35613750D02*
X73488084Y-36613750D01*
X73297608Y-35899465D01*
X73107131Y-36613750D01*
X72869036Y-35613750D01*
X72059512Y-35947084D02*
X72059512Y-36613750D01*
X72297608Y-35566131D02*
X72535703Y-36280417D01*
X71916655Y-36280417D01*
%TO.C,SW3*%
X92629554Y-33495304D02*
X92486697Y-33542923D01*
X92248601Y-33542923D01*
X92153363Y-33495304D01*
X92105744Y-33447685D01*
X92058125Y-33352447D01*
X92058125Y-33257209D01*
X92105744Y-33161971D01*
X92153363Y-33114352D01*
X92248601Y-33066733D01*
X92439078Y-33019114D01*
X92534316Y-32971495D01*
X92581935Y-32923876D01*
X92629554Y-32828638D01*
X92629554Y-32733400D01*
X92581935Y-32638162D01*
X92534316Y-32590543D01*
X92439078Y-32542923D01*
X92200982Y-32542923D01*
X92058125Y-32590543D01*
X91724792Y-32542923D02*
X91486697Y-33542923D01*
X91296221Y-32828638D01*
X91105744Y-33542923D01*
X90867649Y-32542923D01*
X90581935Y-32542923D02*
X89962887Y-32542923D01*
X90296221Y-32923876D01*
X90153363Y-32923876D01*
X90058125Y-32971495D01*
X90010506Y-33019114D01*
X89962887Y-33114352D01*
X89962887Y-33352447D01*
X90010506Y-33447685D01*
X90058125Y-33495304D01*
X90153363Y-33542923D01*
X90439078Y-33542923D01*
X90534316Y-33495304D01*
X90581935Y-33447685D01*
%TO.C,SW2*%
X110650939Y-36521064D02*
X110508082Y-36568683D01*
X110269986Y-36568683D01*
X110174748Y-36521064D01*
X110127129Y-36473445D01*
X110079510Y-36378207D01*
X110079510Y-36282969D01*
X110127129Y-36187731D01*
X110174748Y-36140112D01*
X110269986Y-36092493D01*
X110460463Y-36044874D01*
X110555701Y-35997255D01*
X110603320Y-35949636D01*
X110650939Y-35854398D01*
X110650939Y-35759160D01*
X110603320Y-35663922D01*
X110555701Y-35616303D01*
X110460463Y-35568683D01*
X110222367Y-35568683D01*
X110079510Y-35616303D01*
X109746177Y-35568683D02*
X109508082Y-36568683D01*
X109317606Y-35854398D01*
X109127129Y-36568683D01*
X108889034Y-35568683D01*
X108555701Y-35663922D02*
X108508082Y-35616303D01*
X108412844Y-35568683D01*
X108174748Y-35568683D01*
X108079510Y-35616303D01*
X108031891Y-35663922D01*
X107984272Y-35759160D01*
X107984272Y-35854398D01*
X108031891Y-35997255D01*
X108603320Y-36568683D01*
X107984272Y-36568683D01*
%TO.C,SW1*%
X128653333Y-36521064D02*
X128510476Y-36568683D01*
X128272380Y-36568683D01*
X128177142Y-36521064D01*
X128129523Y-36473445D01*
X128081904Y-36378207D01*
X128081904Y-36282969D01*
X128129523Y-36187731D01*
X128177142Y-36140112D01*
X128272380Y-36092493D01*
X128462857Y-36044874D01*
X128558095Y-35997255D01*
X128605714Y-35949636D01*
X128653333Y-35854398D01*
X128653333Y-35759160D01*
X128605714Y-35663922D01*
X128558095Y-35616303D01*
X128462857Y-35568683D01*
X128224761Y-35568683D01*
X128081904Y-35616303D01*
X127748571Y-35568683D02*
X127510476Y-36568683D01*
X127320000Y-35854398D01*
X127129523Y-36568683D01*
X126891428Y-35568683D01*
X125986666Y-36568683D02*
X126558095Y-36568683D01*
X126272380Y-36568683D02*
X126272380Y-35568683D01*
X126367619Y-35711541D01*
X126462857Y-35806779D01*
X126558095Y-35854398D01*
%TO.C,SW13*%
X153188456Y-102941076D02*
X153038142Y-102950098D01*
X152808160Y-102888474D01*
X152728492Y-102817829D01*
X152694820Y-102759507D01*
X152673473Y-102655190D01*
X152698122Y-102563197D01*
X152768768Y-102483529D01*
X152827089Y-102449857D01*
X152931407Y-102428510D01*
X153127717Y-102431812D01*
X153232035Y-102410465D01*
X153290356Y-102376793D01*
X153361002Y-102297125D01*
X153385652Y-102205132D01*
X153364305Y-102100815D01*
X153330633Y-102042493D01*
X153250965Y-101971847D01*
X153020982Y-101910224D01*
X152870668Y-101919246D01*
X152561018Y-101786977D02*
X152072216Y-102691279D01*
X152073101Y-101952033D01*
X151704245Y-102592681D01*
X151733081Y-101565132D01*
X150600329Y-102296888D02*
X151152287Y-102444785D01*
X150876308Y-102370836D02*
X151135127Y-101404911D01*
X151190146Y-101567549D01*
X151257489Y-101684192D01*
X151337158Y-101754838D01*
X150537173Y-101244689D02*
X149939219Y-101084468D01*
X150162597Y-101538713D01*
X150024607Y-101501739D01*
X149920289Y-101523086D01*
X149861968Y-101556757D01*
X149791322Y-101636426D01*
X149729699Y-101866408D01*
X149751046Y-101970726D01*
X149784718Y-102029047D01*
X149864386Y-102099693D01*
X150140365Y-102173641D01*
X150244682Y-102152294D01*
X150303003Y-102118622D01*
%TO.C,SW14*%
X135783408Y-98277407D02*
X135633094Y-98286429D01*
X135403112Y-98224805D01*
X135323444Y-98154160D01*
X135289772Y-98095838D01*
X135268425Y-97991521D01*
X135293074Y-97899528D01*
X135363720Y-97819860D01*
X135422041Y-97786188D01*
X135526359Y-97764841D01*
X135722669Y-97768143D01*
X135826987Y-97746796D01*
X135885308Y-97713124D01*
X135955954Y-97633456D01*
X135980604Y-97541463D01*
X135959257Y-97437146D01*
X135925585Y-97378824D01*
X135845917Y-97308178D01*
X135615934Y-97246555D01*
X135465620Y-97255577D01*
X135155970Y-97123308D02*
X134667168Y-98027610D01*
X134668053Y-97288364D01*
X134299197Y-97929012D01*
X134328033Y-96901463D01*
X133195281Y-97633219D02*
X133747239Y-97781116D01*
X133471260Y-97707167D02*
X133730079Y-96741242D01*
X133785098Y-96903880D01*
X133852441Y-97020523D01*
X133932110Y-97091169D01*
X132539891Y-96767424D02*
X132367345Y-97411374D01*
X132868471Y-96461075D02*
X132913583Y-97212646D01*
X132315628Y-97052425D01*
%TD*%
M02*
